<svg width="1253" height="874" viewBox="0 0 1253 874" fill="none" xmlns="http://www.w3.org/2000/svg">
<g id="undraw_connected_world_wuay 1">
<g id="continets">
<path id="Vector" d="M329.842 249.224C329.444 246.27 328.64 243.378 327.448 240.619C327.297 240.097 327.031 239.611 326.668 239.191C326.305 238.771 325.852 238.427 325.34 238.18C324.655 238.013 323.936 238.005 323.247 238.158L312.505 239.702C311.606 239.74 310.745 240.054 310.054 240.596C308.655 241.978 310.033 244.202 309.99 246.109C309.942 248.252 307.914 249.992 305.714 250.568C303.469 250.994 301.154 250.967 298.921 250.489L283.9 248.297C288.324 246.97 292.261 244.503 295.263 241.176C297.24 238.977 298.291 234.871 295.435 233.83C294.586 233.611 293.701 233.545 292.826 233.633C286.02 233.683 280.665 228.347 274.294 226.1C270.216 224.755 265.79 224.655 261.648 225.814C257.506 226.974 253.861 229.333 251.233 232.556L259.235 232.918C259.988 232.879 260.734 233.066 261.366 233.452C263.12 234.805 260.94 237.403 261.187 239.522C261.508 242.275 265.4 242.862 268.334 243.141C271.267 243.419 274.989 245.657 273.578 248.089C258.832 252.858 243.827 238.765 228.341 240.5C224.422 240.939 220.721 242.385 216.894 243.294C193.518 248.848 169.351 234.03 145.472 237.168C140.163 238.018 134.945 239.31 129.881 241.029C126.631 242.031 123.24 243.114 120.879 245.438C118.517 247.762 117.619 251.737 119.856 254.167C113.69 254.644 107.482 254.09 101.522 252.531C103.134 253.372 104.475 254.605 105.404 256.101C106.333 257.597 106.816 259.3 106.803 261.031C97.1753 262.505 87.8025 265.189 78.9367 269.01C80.5914 271.594 82.5241 274.012 84.7044 276.225L72.5159 283.578C76.6338 284.552 78.7628 289.825 76.3681 293.118C80.6379 291.335 83.284 286.72 87.8498 285.785C90.841 285.172 93.8846 286.321 96.7222 287.4C99.5598 288.48 102.679 289.527 105.616 288.716C108.554 287.906 110.72 284.33 108.854 282.051C121.409 278.611 134.385 276.707 147.46 276.387C148.469 276.268 149.492 276.45 150.384 276.908C152.086 278.017 151.638 280.412 151.547 282.355C151.455 284.298 153.068 286.852 154.917 285.976C152.741 287.748 154.602 291.084 156.689 292.948C158.777 294.811 161.293 297.382 160.015 299.806C159.682 300.438 159.116 300.945 158.795 301.583C157.847 303.467 159.352 305.664 161.126 306.915C162.9 308.166 165.074 309.041 166.306 310.773C167.539 312.506 166.979 315.539 164.775 315.781L158.511 308.312C156.37 310.396 154.903 313.007 154.279 315.843C160.922 320.942 161.921 331.321 156.36 337.457C153.518 340.592 149.476 342.497 145.949 344.943C142.422 347.388 139.158 350.87 139.167 354.988C139.182 362.101 138.563 368.71 141.402 375.305C146.636 387.465 152.679 399.304 159.495 410.753C161.285 413.759 163.598 417.054 167.225 417.572C162.642 407.095 158.517 396.456 154.849 385.653C157.238 385.662 159.998 385.84 161.399 387.658C162.559 389.163 162.31 391.209 162.67 393.036C163.128 394.806 163.892 396.493 164.932 398.03L186.816 434.636C188.63 437.671 190.711 440.928 194.178 442.157C196.395 442.943 198.96 442.795 201 443.926C202.599 444.812 203.676 446.386 205.307 447.221C209.917 449.583 216.327 445.054 220.635 447.873C221.867 448.68 222.651 449.96 223.786 450.883C227.765 454.119 234.292 451.955 238.885 454.368C241.845 455.924 243.379 459.035 244.958 461.854C248.913 468.917 255.313 475.836 263.789 476.398C266.451 476.575 269.171 476.101 271.774 476.657C274.376 477.213 276.938 479.346 276.52 481.821C275.804 486.065 278.037 490.713 277.437 494.973C276.345 502.732 264.624 506.142 263.617 513.912C263.397 515.613 263.742 517.369 263.311 519.035C262.782 521.075 261.15 522.737 260.57 524.766C259.471 528.61 262.404 532.436 265.626 535.022C268.848 537.609 272.691 539.839 274.453 543.459C276.314 547.286 275.4 551.748 276.005 555.916C277.327 565.017 285.698 571.764 294.312 576.114C296.937 577.439 299.755 578.722 301.454 581.021C303.671 584.022 303.45 587.979 304.191 591.564C306.004 600.346 313.877 607.582 314.1 616.525C314.259 622.881 310.496 628.648 308.249 634.645C306.141 640.391 305.379 646.497 306.013 652.545C306.647 658.593 308.663 664.442 311.923 669.691C313.605 672.358 315.616 674.871 316.805 677.761C318.928 682.919 318.239 688.782 320.196 693.997C322.783 700.892 329.893 706.587 329.212 713.869C332.44 720.163 339.567 723.256 346.734 725.129L359.579 728.487C362.038 729.13 364.608 729.778 367.113 729.312C369.617 728.847 372.007 726.894 371.943 724.498C365.644 723.164 359.143 721.745 353.95 718.141C348.758 714.536 345.201 708.118 347.171 702.343C348.085 699.666 350.028 696.574 348.181 694.361C347.123 693.095 345.188 692.764 343.995 691.608C342.134 689.805 342.773 686.777 344.111 684.603C345.449 682.429 347.383 680.486 347.923 678.027C348.195 676.651 348.013 675.23 347.401 673.954C346.789 672.679 345.776 671.609 344.498 670.889C346.88 670.045 349.046 668.74 350.856 667.058C352.528 665.265 353.3 662.501 351.985 660.463C355.89 660.928 360.501 661.156 363.065 658.35C365.113 656.11 364.972 652.761 364.163 649.908C363.354 647.055 361.987 644.284 361.944 641.332C370.954 641.733 379.983 641.446 388.943 640.472C387.648 636.375 384.703 632.912 380.735 630.819C384.793 630.174 388.49 625.612 389.772 621.939C391.054 618.267 390.727 614.266 389.934 610.474C389.63 609.497 389.588 608.465 389.813 607.47C390.27 606.102 391.7 605.268 393.024 604.554L413.167 593.691C414.368 593.126 415.458 592.37 416.387 591.458C418.498 589.131 418.185 585.617 417.105 582.733C416.024 579.849 414.293 577.137 413.877 574.105C412.632 565.038 422.969 558.532 426.457 549.996C427.827 546.646 428.106 543.005 428.37 539.425C428.655 535.581 428.676 531.116 425.533 528.638C422.52 526.264 417.812 526.793 414.659 524.584C411.768 522.559 410.77 518.626 407.613 516.99C404.745 515.505 401.149 516.449 397.959 515.751C392.343 514.52 388.809 508.442 383.073 507.88C379.837 507.562 376.175 509.048 373.522 507.278C371.185 505.718 371.092 502.584 370.647 499.924C369.867 495.791 367.757 491.981 364.601 489.008C361.446 486.035 357.395 484.041 352.996 483.296C349.659 482.793 346.027 482.984 343.189 481.262C340.315 479.519 338.997 476.254 336.739 473.84C333.1 469.948 327.369 468.566 322.001 467.381L300.164 462.56C296.288 461.704 291.291 461.25 289.211 464.439C288.595 465.653 288.159 466.941 287.915 468.266C287.135 470.663 285.567 472.766 283.434 474.273C281.302 475.781 278.716 476.614 276.047 476.654C274.217 473.723 271.252 471.568 267.771 470.641C265.557 470.061 263.186 469.997 261.075 469.144C259.924 468.617 258.901 467.875 258.067 466.964C257.233 466.052 256.605 464.99 256.223 463.843C255.841 462.696 255.712 461.488 255.845 460.293C255.977 459.097 256.368 457.94 256.993 456.891C258.252 454.786 258.738 452.351 258.377 449.961C258.015 447.57 256.826 445.358 254.992 443.666C251.279 440.535 245.907 439.779 240.928 440.092C239.623 437.42 241.804 434.405 244.154 432.463C246.504 430.521 249.357 428.612 249.869 425.712C250.674 421.15 244.476 417.686 239.77 419.046C235.064 420.406 232.06 424.698 230.074 428.93C228.935 431.357 227.967 433.914 226.17 435.961C224.373 438.008 221.479 439.473 218.742 438.816C214.867 437.886 213.37 433.563 212.513 429.895C211.362 424.973 210.205 419.983 210.446 414.949C210.687 409.915 212.494 404.746 216.447 401.338C222.888 395.785 232.77 396.329 241.463 397.215C239.41 395.042 239.917 391.38 242.115 389.334C243.275 388.366 244.669 387.679 246.176 387.331C247.683 386.984 249.257 386.986 250.763 387.339C253.382 387.851 255.742 389.176 257.462 391.101C259.933 393.929 260.635 397.748 262.503 400.958C264.37 404.169 268.569 406.907 272.005 405.185C274.974 403.697 275.445 399.832 274.706 396.749C273.967 393.667 272.398 390.669 272.666 387.52C273.176 381.51 279.81 377.893 285.665 375.418C291.519 372.942 298.222 369.614 299.15 363.648C299.181 362.48 299.416 361.325 299.844 360.228C300.494 359.259 301.396 358.462 302.466 357.913C319.551 347.31 336.921 336.577 356.449 330.784C357.465 330.482 357.584 330.817 358.62 330.581C360.069 329.795 359.109 327.619 357.719 326.743C356.33 325.866 354.473 325.194 354.12 323.657C353.861 322.528 354.57 321.419 354.754 320.277C355.206 317.47 351.63 314.878 348.853 316C347.285 314.049 350.389 311.783 352.898 311.134C360.435 309.186 368.171 307.999 375.976 307.594C376.876 307.459 377.799 307.607 378.602 308.013C379.913 308.866 379.745 310.821 378.816 312.039C377.887 313.256 376.442 314.02 375.284 315.05C374.019 316.207 373.117 317.668 372.676 319.273C372.235 320.879 372.273 322.568 372.784 324.155C376.858 326.101 381.288 328.105 385.8 327.419C390.313 326.733 394.318 321.972 392.197 318.169C390.222 314.628 384.289 313.83 383.268 309.949C382.074 305.405 388.924 301.364 387.381 296.913C386.705 294.964 384.636 293.816 383.048 292.409C381.174 290.683 379.898 288.466 379.39 286.047C378.882 283.629 379.164 281.122 380.2 278.857C377.614 279.284 374.957 279.123 372.452 278.387C369.946 277.65 367.665 276.36 365.8 274.625C362.355 271.361 359.607 266.212 354.716 266.358C350.227 266.492 346.361 271.409 342.164 269.909C341.132 269.54 340.043 268.789 339.043 269.229C338.715 269.429 338.44 269.696 338.238 270.01C338.036 270.325 337.913 270.678 337.878 271.044C336.812 275.832 338.647 281.288 335.867 285.426C332.843 289.929 325.848 290.553 322.181 294.613C320.191 296.818 319.42 299.788 317.59 302.111C315.761 304.435 311.878 305.913 309.683 303.888C310.762 301.805 311.057 299.439 310.519 297.179C309.981 294.918 308.642 292.896 306.722 291.442C304.684 290.193 302.487 289.19 300.182 288.455C297.607 287.431 295.157 286.149 292.876 284.631C291.733 283.984 290.804 283.051 290.194 281.936C289.711 280.541 289.776 279.029 290.377 277.674C291.49 274.677 293.454 272.022 296.057 269.997C298.659 267.971 301.802 266.652 305.145 266.18C308.068 265.807 311.47 265.939 313.404 263.847C314.428 262.74 314.965 261.067 316.451 260.618C317.401 260.439 318.388 260.553 319.263 260.943L330.174 264.549C331.391 265.065 332.731 265.274 334.06 265.153C334.72 265.07 335.321 264.755 335.743 264.273C336.166 263.791 336.379 263.176 336.339 262.552C335.99 260.851 333.202 260.035 333.456 258.318C333.598 257.762 333.917 257.26 334.369 256.877C338.307 252.942 343.122 249.872 348.47 247.889C353.819 245.906 359.568 245.057 365.307 245.404C366.684 247.528 364.506 250.043 362.694 251.856C360.882 253.669 359.425 256.909 361.617 258.305C362.515 258.735 363.514 258.946 364.522 258.919C367.208 259.26 369.819 260.004 372.254 261.121C376.024 262.662 379.722 264.348 383.348 266.179C383.027 263.934 382.722 261.569 383.628 259.47C384.534 257.371 387.109 255.725 389.358 256.542C391.526 257.33 392.638 260.025 394.947 260.272C398.028 260.602 399.243 256.328 397.956 253.679C396.669 251.03 394.122 248.812 393.909 245.907C393.766 243.948 394.56 241.517 392.893 240.331C392.3 239.974 391.627 239.753 390.926 239.683L349.305 232.491C346.833 232.064 343.262 232.391 343.153 234.749C343.092 236.065 344.343 237.367 343.789 238.577C343.197 239.868 341.253 239.75 339.837 240.207C337.64 240.916 336.538 243.365 336.749 245.538C337.135 247.696 338.025 249.748 339.356 251.545C336.648 250.482 332.549 250.287 329.842 249.224Z" fill="#3F3D56"/>
<path id="Vector_2" d="M296.632 216.045C294.008 215.23 291.179 215.192 288.531 215.937C285.883 216.681 283.542 218.173 281.827 220.209C281.142 221.056 280.566 222.224 281.14 223.142C281.962 224.457 284.058 223.938 285.604 223.467C287.875 222.705 290.347 222.65 292.654 223.309C294.105 223.777 295.403 224.604 296.861 225.054C297.57 225.333 298.347 225.425 299.108 225.32C299.868 225.216 300.585 224.919 301.18 224.461C302.18 223.503 302.243 222.014 302.244 220.673C302.314 220.224 302.275 219.766 302.132 219.333C301.989 218.9 301.745 218.502 301.417 218.169C300.834 217.851 300.179 217.669 299.505 217.637C297.998 217.375 296.634 216.627 295.651 215.523" fill="#3F3D56"/>
<path id="Vector_3" d="M311.64 212.121C311.053 212.091 310.467 212.204 309.939 212.448C309.412 212.692 308.959 213.059 308.627 213.515C308.294 213.97 308.091 214.498 308.039 215.048C307.986 215.598 308.085 216.152 308.326 216.656C310.13 217.118 312.015 217.233 313.867 216.995C314.791 216.861 315.652 216.472 316.341 215.879C317.03 215.285 317.517 214.514 317.74 213.661C315.559 214.034 313.308 213.63 311.427 212.529" fill="#3F3D56"/>
<path id="Vector_4" d="M361.993 205.568C357.084 206.548 352.314 208.07 347.785 210.101C349.92 210.871 351.735 212.266 352.963 214.079C354.19 215.891 354.765 218.027 354.603 220.169C354.411 220.992 354.434 221.846 354.668 222.659C355.189 223.847 356.702 224.292 358.031 224.597C360.419 225.28 362.913 225.579 365.408 225.482C366.655 225.42 367.867 225.068 368.933 224.456C370 223.844 370.886 222.992 371.514 221.978C371.875 221.015 372.299 220.073 372.784 219.159C375.97 214.602 385.436 220.112 388.857 215.708C390.063 214.156 389.952 211.82 391.523 210.591C392.336 210.055 393.278 209.718 394.264 209.609C401.144 208.325 408.094 207.396 415.082 206.825C418.393 206.554 422.708 205.438 422.736 202.317C410.264 200.017 397.333 201.65 385.952 206.964C381.852 208.892 376.428 212.949 372.479 210.392C371 209.435 371.073 206.857 369.038 205.78C366.957 204.68 364.202 205.128 361.993 205.568Z" fill="#3F3D56"/>
<path id="Vector_5" d="M402.779 212.73L408.633 213.787C407.556 213.742 406.48 213.913 405.479 214.29C404.477 214.666 403.573 215.239 402.826 215.969C402.078 216.7 401.506 217.572 401.146 218.527C400.786 219.482 400.647 220.498 400.738 221.507C406.221 223.227 412.198 221.553 417.973 221.782C423.748 222.011 430.467 225.884 429.481 231.233C429.183 232.85 428.189 234.466 428.706 236.034C429.068 237.132 430.1 237.912 430.683 238.924C431.897 241.033 430.927 243.7 429.394 245.617C427.861 247.534 425.801 249.063 424.456 251.101C421.11 256.167 423.011 262.717 425.004 268.378C425.581 270.517 426.645 272.512 428.123 274.227C431.076 277.175 435.888 277.432 440.198 277.491C443.335 277.534 446.928 277.388 448.911 275.106C451.501 272.126 449.69 267.478 451.395 263.981C452.944 260.805 456.889 259.443 460.463 258.476C467.012 256.706 473.685 255.201 479.876 252.527C487.563 249.207 494.748 244.032 503.197 243.605C505.567 243.485 507.997 243.748 510.28 243.138C512.563 242.528 514.732 240.674 514.559 238.451C514.412 236.551 512.7 235.156 511.363 233.724C510.025 232.292 508.975 230.09 510.204 228.575L532.351 224.69C530.781 220.673 529.558 215.382 533.166 212.767C534.467 211.823 536.21 211.446 537.318 210.305C539.207 208.361 538.257 205.012 536.077 203.359C533.897 201.705 530.949 201.321 528.156 201.104C518.445 200.346 508.678 200.847 498.948 201.348C479.929 202.327 460.91 203.306 441.89 204.285C438.061 204.482 433.641 204.181 430.129 205.407C427.156 206.446 425.043 208.352 421.643 209.022C415.366 210.258 408.459 209.421 402.779 212.73Z" fill="#3F3D56"/>
<path id="Vector_6" d="M507.658 256.185C507.061 256.096 506.451 256.226 505.954 256.548C505.625 256.888 505.429 257.323 505.399 257.782C505.021 259.805 505.471 261.889 506.659 263.614C507.265 264.461 508.1 265.139 509.079 265.58C510.058 266.021 511.145 266.207 512.227 266.121C514.863 265.805 516.806 263.693 519.229 262.663C522.964 261.076 538.827 258.602 527.854 253.035C524.072 251.117 521.629 252.81 518.649 254.074C515.257 255.703 511.458 256.433 507.658 256.185V256.185Z" fill="#3F3D56"/>
<path id="Vector_7" d="M603.767 209.588C602.486 210.079 601.414 210.955 600.719 212.079C600.399 212.65 600.324 213.315 600.511 213.935C600.698 214.556 601.132 215.086 601.723 215.415C602.202 215.577 602.709 215.653 603.218 215.637L608.427 215.783C610.641 215.845 613.405 216.288 614 218.291C614.442 219.778 613.453 221.689 614.646 222.752C615.158 223.124 615.773 223.349 616.418 223.401C618.134 223.815 619.926 223.869 621.667 223.56C625.458 222.605 623.466 220.433 624.66 218.498C626.487 215.538 626.171 217.33 629.389 215.634C631.766 214.381 634.838 212.108 632.854 208.915C629.404 203.363 608.858 207.202 603.767 209.588Z" fill="#3F3D56"/>
<path id="Vector_8" d="M706.595 206.796L703.57 207.175C696.748 208.03 689.888 208.893 683.318 210.817C686.162 211.873 689.146 212.56 692.187 212.86C693.861 212.937 695.525 213.159 697.155 213.524C700.058 214.335 702.982 216.43 705.785 215.357C707.524 214.691 708.091 212.991 709.531 212.091C710.525 211.469 714.297 210.462 714.718 209.834C718.127 204.759 709.215 206.468 706.595 206.796Z" fill="#3F3D56"/>
<path id="Vector_9" d="M719.879 219.707C715.838 221.829 712.089 224.408 708.715 227.385C707.294 228.64 705.842 230.2 705.971 232.028C706.142 234.457 708.898 235.867 711.286 236.816L720.957 240.661C722.13 239.108 721.056 236.965 719.844 235.439C718.631 233.913 717.19 232.147 717.726 230.311C718.337 228.215 721.058 227.501 723.34 227.14C727.057 226.552 737.085 226.599 735.88 220.973C734.461 214.345 723.611 217.749 719.879 219.707Z" fill="#3F3D56"/>
<path id="Vector_10" d="M717.935 594.844C717.014 597.347 716.927 600.295 718.519 602.481C720.306 604.933 723.882 605.847 726.977 605.225C730.058 604.455 732.804 602.797 734.829 600.484C736.681 598.546 738.204 596.353 739.345 593.98C740.939 590.283 742.062 586.422 742.693 582.477L745.696 567.673C746.367 564.364 746.341 554.22 739.865 557.525C738.096 558.428 734 565.557 732.146 567.578C728.804 571.222 728.362 574.757 726.603 579.17C724.4 584.699 719.971 589.307 717.935 594.844Z" fill="#3F3D56"/>
<path id="Vector_11" d="M1059.97 670.603C1057.85 669.826 1055.79 668.907 1053.82 667.852C1051.83 672.973 1050.78 678.369 1050.7 683.817L1065.2 676.112C1067.38 674.953 1069.85 673.343 1069.8 670.99C1069.82 670.699 1069.76 670.409 1069.62 670.15C1069.48 669.89 1069.26 669.672 1069 669.516C1068.68 669.395 1068.33 669.356 1067.99 669.404C1065.84 669.573 1063.87 670.566 1061.85 671.257C1059.82 671.948 1057.45 672.313 1055.59 671.288" fill="#3F3D56"/>
<path id="Vector_12" d="M1136.46 675.177C1134.87 675.584 1133.31 676.108 1131.81 676.744C1128.48 678.334 1126.22 681.354 1123.22 683.448C1120.36 685.452 1116.91 686.552 1113.52 687.622C1112.53 688.449 1112.99 690.114 1114.07 690.84C1115.23 691.461 1116.56 691.743 1117.9 691.648C1121.41 691.721 1125.12 691.753 1128.2 690.158C1129.94 689.1 1131.56 687.889 1133.05 686.541C1136.66 683.719 1140.98 681.856 1145.27 680.056C1146.82 679.504 1148.27 678.694 1149.52 677.667C1152.21 675.177 1152.4 671.336 1148.52 670.488C1145.39 669.803 1139.45 674.27 1136.46 675.177Z" fill="#3F3D56"/>
<path id="Vector_13" d="M1170.26 654.446C1170.43 652.733 1170.19 651.005 1169.55 649.393C1168.91 647.781 1167.88 646.326 1166.56 645.14C1166.52 648.567 1166.41 652.219 1164.35 655.053C1162.89 657.073 1160.6 658.437 1158.99 660.361C1157.39 662.285 1156.68 665.334 1158.56 667.022C1159.76 667.881 1161.22 668.354 1162.73 668.372C1166.48 668.786 1170.81 669.017 1173.43 666.478C1174.86 665.092 1175.56 663.04 1177.31 662.021C1177.96 661.765 1178.54 661.374 1179.01 660.879C1179.73 659.802 1178.58 658.382 1177.29 657.994C1176 657.606 1174.58 657.789 1173.29 657.42C1171.99 657.052 1170.8 655.683 1171.46 654.574" fill="#3F3D56"/>
<path id="Vector_14" d="M1110.19 528.772C1108.23 529.221 1106.19 529.333 1104.19 529.105C1100.86 528.529 1098.26 526.172 1095.57 524.238C1089.18 519.667 1081.41 517.117 1073.38 516.955C1066.07 516.825 1058.69 518.685 1051.51 517.388C1051.98 519.837 1054.21 521.674 1056.6 522.766C1058.98 523.858 1061.61 524.407 1064 525.477C1067.83 527.207 1070.87 530.176 1072.56 533.841C1073.33 535.53 1073.81 537.368 1074.98 538.843C1077.37 541.858 1081.89 542.52 1085.88 542.274C1091.09 541.952 1096.52 540.547 1101.36 542.367C1105.07 543.76 1107.72 546.804 1110.81 549.171C1113.9 551.538 1118.26 553.295 1121.81 551.587C1118.12 550.466 1114.91 548.267 1112.65 545.311C1110.38 542.355 1109.19 538.797 1109.23 535.157C1112.71 535.458 1122.74 535.341 1122.2 529.784C1121.74 525.074 1113.18 528.264 1110.19 528.772Z" fill="#3F3D56"/>
<path id="Vector_15" d="M1064.63 567.09C1065.25 563.905 1068.63 561.093 1067.58 558.01C1066.85 555.879 1064.22 554.826 1061.83 554.773C1059.45 554.721 1057.11 555.388 1054.72 555.45C1053.17 555.373 1051.62 555.394 1050.07 555.512C1045.34 556.243 1042.42 560.899 1037.96 562.555C1035.25 563.562 1032.21 563.369 1029.39 564.065C1022.99 565.645 1018.94 571.324 1014.46 575.903C1007.24 583.268 997.818 588.426 987.432 590.707C983.793 591.498 979.881 592.004 976.988 594.224C973.158 597.163 972.215 602.201 971.363 606.777C969.008 619.413 965.41 631.817 960.615 643.828L975.812 645.65C978.701 645.997 981.695 646.336 984.479 645.532C986.502 644.816 988.418 643.857 990.18 642.681C996.948 638.735 1004.52 636.167 1012.41 635.144C1016.39 634.631 1020.57 634.537 1024.3 635.926C1028.04 637.315 1031.24 640.465 1031.55 644.225C1033.17 643.754 1034.89 643.703 1036.53 644.078C1038.18 644.453 1039.68 645.241 1040.88 646.357C1043.26 648.634 1044.82 651.555 1045.34 654.708C1045.74 656.66 1046.14 659 1048.07 659.819C1049.64 660.487 1051.45 659.767 1053.17 659.638C1059.01 659.199 1063.86 665.596 1069.6 664.495C1075.76 663.313 1077.28 654.651 1083.28 652.916C1086.74 651.92 1091.58 653.131 1093.23 650.117C1094.68 647.46 1091.78 644.394 1092.08 641.419C1092.45 637.756 1097.05 636.201 1100.6 634.638C1112.83 629.249 1118.63 613.792 1112.7 602.392C1109.19 595.638 1102.28 590.321 1101.01 582.901C1100.03 577.192 1102.42 570.535 1098.55 566.041C1096.57 563.755 1093.24 562.494 1092.06 559.766C1091.32 558.049 1091.62 556.101 1091.22 554.287C1090.83 552.474 1089.14 550.576 1087.23 551.047C1081.7 552.411 1079.93 568.472 1076.97 572.374C1072.46 578.306 1063.21 574.399 1064.63 567.09Z" fill="#3F3D56"/>
<path id="Vector_16" d="M962.295 534.84C960.403 534.342 958.337 533.852 956.525 534.563C954.712 535.275 953.653 537.775 955.108 539.015C966.491 538.599 977.943 538.185 989.228 539.637C1002.23 541.309 1015.1 545.452 1028.16 544.233C1020.7 542.166 1013.12 540.514 1005.45 539.284L992.664 536.991C989.234 536.316 985.768 535.813 982.282 535.484C974.988 534.919 969.467 536.729 962.295 534.84Z" fill="#3F3D56"/>
<path id="Vector_17" d="M973.69 497.614C972.746 497.54 971.575 497.476 971.086 498.239C970.619 498.968 971.154 499.931 970.903 500.748C970.56 501.865 969.002 502.15 967.775 501.998C966.548 501.846 965.221 501.482 964.134 502.038C963.583 502.391 963.168 502.903 962.953 503.497C962.738 504.09 962.734 504.733 962.941 505.33C963.385 506.513 964.104 507.589 965.045 508.48C966.653 510.382 968.485 512.108 970.506 513.623C974.418 516.335 979.718 517.642 982.182 521.578C982.53 522.341 983.064 523.016 983.741 523.549C984.924 524.253 986.467 523.718 987.74 523.171L992.205 521.256C993.009 520.984 993.727 520.525 994.291 519.923C995.311 518.623 994.685 516.776 993.829 515.376C992.973 513.976 991.877 512.527 992.061 510.922C992.388 508.06 996.307 506.965 997.918 504.517C999.542 502.049 998.485 498.869 998.672 495.973C998.891 492.586 1001.16 488.18 997.511 485.65C994.412 483.499 991.45 485.486 989.225 487.861C984.534 492.868 982.315 498.29 973.69 497.614Z" fill="#3F3D56"/>
<path id="Vector_18" d="M1000.79 447.009C1002.31 449.75 1005.49 451.385 1007.15 454.054C1008.95 456.946 1008.75 460.684 1010.7 463.488C1012.71 466.364 1016.74 467.891 1017.87 471.163C1019.09 474.735 1016.31 479.077 1018.53 482.198C1018.94 482.708 1019.47 483.132 1020.06 483.443C1020.66 483.753 1021.32 483.944 1022 484.003C1022.68 484.061 1023.37 483.987 1024.01 483.784C1024.66 483.58 1025.26 483.253 1025.76 482.822C1026.7 481.865 1027.2 480.602 1027.16 479.303C1027.12 478.004 1026.54 476.772 1025.55 475.868C1024.23 474.743 1022.34 474.256 1021.25 472.942C1020.67 472.183 1020.29 471.312 1020.13 470.395C1019.53 467.751 1019.63 465.009 1020.41 462.406C1020.71 461.746 1020.78 461.017 1020.63 460.316C1020.13 458.968 1018.19 458.872 1016.82 458.246C1013.72 456.825 1013.8 452.717 1014.34 449.517C1013.98 451.647 1005.9 448.024 1005.05 446.818C1003.37 444.421 1004.29 439.797 1003.95 437.149C1000.32 438.791 998.925 443.659 1000.79 447.009Z" fill="#3F3D56"/>
<path id="Vector_19" d="M919.388 489.172C917.897 487.605 915.651 485.965 913.652 486.91C912.126 487.631 911.707 489.613 912.304 491.116C913.033 492.575 914.154 493.83 915.558 494.758C919.724 497.985 924.211 500.897 927.846 504.648C934.351 511.361 937.797 520.419 944.871 526.603C946.293 528.037 948.176 528.994 950.232 529.327C952.293 529.507 954.608 528.268 954.844 526.337C955.04 524.747 953.859 523.323 952.705 522.144C949.957 519.337 946.948 516.754 944.354 513.821C943.155 512.694 942.402 511.217 942.219 509.634C942.206 508.055 943.739 506.402 945.369 506.793C943.387 506.318 941.917 503.217 939.009 502.634C936.578 502.147 935.99 503.561 933.098 502.396C927.581 500.173 923.252 493.234 919.388 489.172Z" fill="#3F3D56"/>
<path id="Vector_20" d="M1049.02 336.522C1047.44 336.08 1045.89 335.558 1044.36 334.959C1040.27 333.804 1034.85 336.631 1035.39 340.615C1035.76 343.261 1038.38 345.046 1039.83 347.341C1041.98 350.746 1041.4 355.064 1040.27 358.877C1040 360.057 1039.47 361.173 1038.72 362.159C1037.68 363.199 1036.44 364.041 1035.05 364.638C1029.52 367.551 1024.64 371.443 1020.69 376.099C1020.26 376.529 1019.96 377.059 1019.82 377.635C1019.62 378.98 1021.06 379.959 1021.88 381.081C1023.69 383.573 1022.38 386.926 1022.56 389.936C1022.53 390.362 1022.62 390.787 1022.82 391.172C1023.01 391.556 1023.31 391.887 1023.68 392.133C1024.77 392.653 1026.06 391.77 1026.65 390.765C1028.61 387.43 1027.14 382.077 1030.81 380.469C1031.51 380.165 1032.35 380.037 1032.82 379.463C1033.55 378.553 1032.84 377.205 1033.22 376.117C1033.78 374.484 1036.16 374.41 1037.98 374.483C1041.13 374.606 1044.27 374.213 1047.27 373.321C1048.45 373.058 1049.52 372.477 1050.35 371.649C1051.45 370.361 1051.35 368.529 1051.13 366.891C1050.03 358.726 1047.27 350.834 1043.02 343.641C1046.25 344.028 1049.76 344.364 1052.55 342.783C1054.11 341.898 1055.98 339.251 1055.21 337.449C1053.98 334.6 1051.77 336.998 1049.02 336.522Z" fill="#3F3D56"/>
<path id="Vector_21" d="M637.734 377.338C638.12 379.285 638.5 381.335 637.821 383.21C637.142 385.085 635.004 386.651 632.986 386.077C631.42 385.631 630.515 384.152 629.403 383.025C623.217 376.754 609.263 380.385 605.442 372.627C603.882 369.461 604.942 365.668 603.878 362.326C603.207 360.394 601.872 358.726 600.082 357.585C598.293 356.443 596.15 355.892 593.99 356.018C592.02 356.285 590.103 356.822 588.3 357.613C576.219 362.156 563.536 365.135 550.6 366.467C548.142 366.608 545.71 367.023 543.356 367.705C538.045 369.513 534.415 374.137 531.833 378.856C529.25 383.575 527.343 388.684 523.88 392.876C520.241 397.282 515.141 400.367 510.384 403.704C508.552 404.814 507.026 406.315 505.932 408.086C504.901 410.075 504.959 412.387 505.039 414.597L506.012 441.442C506.137 444.895 506.294 448.471 507.939 451.561C509.994 455.419 514.054 457.946 516.87 461.355C519.744 464.858 521.241 469.186 521.108 473.606C521.048 475.383 520.86 477.485 522.334 478.601C523.231 479.147 524.28 479.43 525.348 479.415L564.018 482.387C570.82 482.91 578.358 483.769 582.799 488.636C584.895 490.933 586.579 494.236 589.789 494.482C591.166 494.588 592.506 494.057 593.883 493.954C597.358 493.696 600.411 496.173 602.338 498.901C605.253 503.059 606.577 508.024 606.091 512.981C605.775 516.093 604.748 519.119 604.526 522.238C603.683 534.106 614.397 544.417 614.605 556.31C614.727 563.305 611.191 569.841 607.743 576.044C613.307 583.96 608.751 594.501 610.966 603.755C613.068 612.535 620.864 619.408 622.806 628.221C623.695 632.255 623.747 637.219 627.535 639.297C629.197 640.058 631.04 640.404 632.886 640.303C644.021 640.427 655.029 638.074 665.01 633.435C669.694 631.253 674.548 627.994 675.366 623.144C676.026 619.233 673.914 614.858 676.064 611.451C678.597 607.435 685.087 607.754 688.815 604.666C694.862 599.658 690.147 590.106 692.597 582.893C694.799 576.408 702.381 572.964 706.139 567.144C707.618 564.641 708.679 561.94 709.285 559.135C711.007 552.431 712.079 545.594 712.487 538.708C712.587 534.524 712.916 530.348 713.471 526.196C717.523 502.558 742.409 486.729 750.489 464.021C751.26 461.852 751.622 458.963 749.568 457.736C748.349 457.19 746.968 457.055 745.655 457.352L727.83 459.462C725.615 459.724 723.269 459.969 721.235 459.106C719.202 458.242 717.745 455.827 718.823 453.992C721.851 448.842 715.623 442.334 712.856 437.057C705.405 422.846 696.531 409.333 686.356 396.699C685.705 396.049 685.297 395.218 685.194 394.33L690.253 394.488C688.545 388.734 685.727 382.437 679.774 380.332C676.419 379.146 672.704 379.556 669.124 379.739C658.872 380.265 647.881 378.812 637.734 377.338Z" fill="#3F3D56"/>
<path id="Vector_22" d="M669.291 244.977C671.973 247.652 674.98 250.489 678.861 250.955C685.717 251.779 690.647 245.121 693.785 239.338C693.901 240.813 694.625 242.186 695.803 243.167C696.981 244.148 698.52 244.658 700.093 244.59C701.785 244.322 703.4 243.729 704.837 242.848C718.421 235.877 733.636 232.184 749.116 232.099C748.967 230.998 749.258 229.884 749.932 228.973C750.606 228.061 751.616 227.416 752.767 227.163C755.915 226.577 758.75 229.132 760.268 231.786C761.786 234.441 762.733 237.517 765.145 239.504C767.557 241.491 772.227 241.404 773.18 238.527C774.095 235.765 771.03 233.41 768.484 231.781C765.939 230.153 763.255 227.139 764.97 224.735C777.976 222.032 791.063 219.318 804.372 218.781C806.638 218.855 808.895 218.489 811.004 217.708C813.034 216.772 814.647 214.649 814.101 212.589C811.197 213.23 808.155 213.045 805.364 212.056C802.572 211.067 800.157 209.32 798.428 207.037C816.894 205.606 836.536 204.387 852.902 212.546C854.866 216.506 844.856 219.799 847.534 223.37C848.389 224.509 850.1 224.643 851.583 224.669C862.956 224.867 874.395 225.061 885.639 223.449C889.748 222.86 893.899 222.028 898.024 222.506C904.896 223.302 910.773 227.607 917.534 229.011C920.285 229.582 923.371 229.602 925.69 228.099C928.01 226.596 929.007 223.174 927.106 221.22C933.471 215.362 944.035 216.814 952.433 219.619C960.83 222.423 968.785 226.946 977.673 227.571C984.046 228.02 990.508 226.41 996.806 227.433C1000.76 228.076 1004.45 229.729 1008.31 230.745C1015.63 232.666 1023.37 232.26 1030.96 232.353C1050.34 232.598 1069.51 236.175 1087.52 242.906C1089.86 243.622 1092.01 244.813 1093.8 246.394C1095.48 248.079 1096.33 250.697 1095.21 252.745L1076.6 250.192C1078.35 253.433 1082.89 253.986 1086.57 255.104C1090.26 256.222 1094.08 260.041 1091.86 263.023C1087.87 261.83 1084.25 265.577 1082.24 269.024C1080.22 272.472 1077.77 276.601 1073.58 276.811C1069.84 276.999 1065.31 274.004 1062.87 276.678C1066.24 280.673 1069.13 285.009 1071.48 289.605C1073.89 294.323 1075.61 300.268 1072.35 304.513C1071.83 305.271 1071.06 305.838 1070.15 306.115C1067.49 306.748 1065.76 303.69 1063.85 301.836C1061.44 299.5 1057.8 298.839 1054.54 297.743C1051.29 296.648 1047.85 294.493 1047.6 291.252C1047.44 289.235 1048.57 287.361 1049.41 285.497C1050.81 282.356 1051.43 278.954 1051.2 275.554C1051.02 272.818 1050.2 269.973 1048.11 268.062C1046.02 266.151 1042.41 265.544 1040.16 267.295C1039.11 268.112 1038.27 269.418 1036.91 269.467C1034.51 269.553 1032.66 265.617 1030.73 266.961C1030.96 268.392 1030.64 269.853 1029.84 271.089C1024.06 275.803 1015.2 273.809 1007.75 275.474C1004.21 276.425 1000.83 277.814 997.678 279.606C996.501 280.078 995.499 280.868 994.799 281.876C993.87 283.571 994.894 285.742 996.531 286.869C998.268 287.869 1000.22 288.494 1002.24 288.7C1011.32 290.314 1020.52 292.811 1027.68 298.284C1034.85 303.756 1039.54 312.802 1037.28 321.208L1019.39 305.154C1020.07 311.895 1020.45 318.654 1020.54 325.432C1020.66 326.755 1020.47 328.086 1019.98 329.332C1018.7 331.978 1015.24 332.868 1012.21 333.452C1011.37 333.602 1010.57 333.918 1009.87 334.379C1009.17 334.84 1008.57 335.436 1008.13 336.126C1007.69 336.817 1007.41 337.588 1007.31 338.388C1007.21 339.187 1007.29 339.998 1007.55 340.767C1008.62 344.061 1011.31 346.63 1013.76 349.189C1016.22 351.748 1018.64 354.657 1018.96 358.09C1019.28 361.522 1016.53 365.392 1012.86 365.153C1010.09 364.972 1008.03 362.639 1006.85 360.275C1005.66 357.911 1004.96 355.278 1003.18 353.269C997.797 347.189 985.706 349.794 980.883 343.313C979.654 344.622 978.802 346.205 978.407 347.911C978.012 349.616 978.088 351.388 978.628 353.059C980.872 351.74 983.943 352.965 985.628 354.882C987.314 356.798 988.109 359.255 989.433 361.407C991.219 364.312 994.062 366.886 994.311 370.232C994.245 371.497 994.268 372.765 994.379 374.028C994.822 376.055 996.647 377.511 997.912 379.205C1000.86 383.148 1000.71 388.564 998.813 393.038C996.916 397.512 993.507 401.25 990.13 404.874C984.233 411.204 978.215 417.497 971.224 422.754C969.229 424.254 967.1 425.729 965.857 427.826C964.615 429.923 964.551 432.867 966.461 434.462C965.094 434.526 962.644 435.157 961.278 435.222C960.798 430.075 960.693 424.904 960.966 419.744C955.574 417.313 949.769 423.823 950.465 429.401C951.161 434.979 955.457 439.455 958.516 444.281C960.753 447.811 962.415 451.926 961.669 455.972C960.922 460.019 957.075 463.752 952.718 463.395C945.788 462.827 942.889 453.485 936.026 452.415C935.421 452.282 934.786 452.341 934.22 452.584C933.202 453.109 933.025 454.389 932.967 455.479C932.687 460.828 932.444 466.39 934.667 471.322C937.92 478.537 946.324 484.597 944.561 492.255C935.065 488.11 930.127 478.109 927.885 468.502C925.643 458.896 925.27 448.811 921.251 439.729C918.199 443.402 911.785 440.366 908.997 436.512C906.354 432.86 904.726 428.634 902.162 424.932C899.597 421.23 895.669 417.915 890.971 417.711C886.045 417.498 881.773 420.672 878.016 423.671C874.927 426.137 871.755 428.701 869.949 432.11C867.321 437.071 868.009 442.919 867.882 448.459C867.745 454.448 866.394 460.766 862.047 465.15C857.7 469.535 849.678 471.062 844.883 467.11C842.38 465.048 841.168 461.966 840.089 459.007C834.886 444.746 830.552 430.219 827.11 415.495C826.304 418.856 823.161 423.187 820.159 421.207C819.486 420.675 818.94 420.015 818.558 419.27C812.959 410.358 802.588 405.012 792.111 401.807C781.633 398.601 770.609 397.106 760.248 393.584C754.441 391.609 748.895 389.015 743.719 385.852C742.399 387.673 741.629 389.794 741.489 391.993C741.349 394.191 741.845 396.384 742.924 398.339C745.223 402.161 750.424 404.372 754.876 403.036C757.177 402.346 759.12 400.846 761.403 400.105C763.686 399.364 766.75 399.728 767.748 401.794C768.703 403.771 767.259 406.162 767.976 408.226C769.067 411.37 774.116 411.612 775.882 414.473C777.195 416.601 776.114 419.428 774.239 421.146C772.363 422.863 769.86 423.805 767.571 425.001C760.142 428.88 754.859 435.503 748.366 440.655C741.873 445.807 732.713 449.569 724.975 446.264C726.82 437.494 715.694 431.055 713.648 422.324C712.974 419.45 713.323 416.398 712.362 413.597C710.969 409.543 707.138 406.755 703.996 403.682C700.184 399.915 697.215 395.469 695.263 390.607C693.311 385.744 692.416 380.564 692.63 375.372C692.8 371.763 693.506 368.096 692.63 364.579C691.755 361.062 688.654 357.658 684.812 357.817C676.036 358.181 664.98 358.794 660.375 351.769C658.732 349.262 658.017 345.589 660.393 343.668C662.069 342.313 664.543 342.441 666.744 342.644L686.518 344.471C691.143 344.898 696.142 345.251 700.111 342.98C704.079 340.71 705.799 334.683 702.124 332.012C699.439 330.06 694.628 330.166 693.848 327.063C693.198 324.478 696.244 321.546 694.599 319.386C693.419 317.837 690.767 318.267 689.16 319.428C687.553 320.589 686.386 322.287 684.588 323.166C681.432 324.708 677.662 323.24 674.268 322.243C670.873 321.245 666.322 321.161 664.675 324.122C662.834 327.433 666.309 331.772 664.481 335.09C662.065 339.477 653.882 336.979 650.489 340.753C646.595 345.083 653.139 351.539 651.826 357.071C650.149 357.85 648.286 358.208 646.418 358.11C644.55 358.011 642.741 357.46 641.168 356.508C639.621 355.52 638.388 354.157 637.601 352.563C636.813 350.969 636.5 349.205 636.695 347.458C637.02 344.969 638.402 342.429 637.476 340.078C636.728 338.177 634.695 337.045 632.805 336.064L613.59 326.093C611.806 329.201 614.061 333.054 616.882 335.388C619.703 337.722 623.236 339.48 625.089 342.552C626.261 344.681 626.524 347.149 625.823 349.453C625.123 351.757 623.512 353.724 621.32 354.95C621.046 355.128 620.733 355.248 620.404 355.302C620.076 355.356 619.738 355.343 619.416 355.262C619.109 355.093 618.842 354.868 618.63 354.6C618.417 354.332 618.265 354.027 618.18 353.702C614.79 345.555 609.7 337.522 601.561 333.266C593.423 329.009 581.729 329.884 576.392 337.054C575.125 338.757 574.274 340.698 573.17 342.499C567.303 352.064 554.726 356.594 542.975 356.298C541.826 356.358 540.682 356.105 539.681 355.571C537.782 354.339 537.868 351.726 538.158 349.576L539.392 340.451C539.639 338.619 539.998 336.594 541.543 335.45C543.72 333.838 546.86 334.855 549.632 334.818C551.732 334.725 553.752 334.029 555.416 332.823C557.081 331.616 558.31 329.958 558.937 328.074C559.497 326.171 559.494 324.16 558.927 322.259C558.36 320.358 557.252 318.638 555.721 317.284C554.45 316.164 552.745 314.756 553.416 313.245C553.684 312.827 554.046 312.47 554.477 312.197C554.907 311.925 555.396 311.744 555.91 311.668C560.889 310.31 566.151 309.954 571.048 308.352C575.944 306.75 580.693 303.472 581.853 298.726C582.208 297.271 582.37 295.509 583.761 294.788C584.459 294.511 585.209 294.368 585.966 294.365C588.621 294.01 591.038 292.735 592.742 290.791C594.446 288.847 595.313 286.374 595.172 283.859C597.519 282.319 600.807 283.452 603.077 285.09C605.347 286.727 607.351 288.891 610.114 289.597C615.262 290.913 620.237 286.633 625.572 286.613C627.816 286.605 630.138 287.35 632.249 286.635C634.389 285.911 635.667 283.911 637.309 282.433C638.951 280.955 641.833 280.054 643.349 281.646L642.058 272.664C644.659 273.281 647.37 273.368 650.009 272.92C652.649 272.472 655.156 271.499 657.361 270.066L640.672 264.77C640.091 264.634 639.555 264.365 639.111 263.987C637.898 262.76 639.103 260.848 640.09 259.453C642.45 256.116 642.846 250.62 638.965 248.959C636.315 247.826 633.274 249.187 630.731 250.518L618.55 256.896C618.163 259.07 620.994 260.303 622.749 261.767C623.811 262.653 624.562 263.82 624.904 265.115C625.247 266.409 625.164 267.771 624.668 269.02C624.171 270.27 623.284 271.349 622.122 272.116C620.96 272.884 619.578 273.303 618.158 273.319C618.96 274.299 619.517 275.435 619.789 276.644C620.06 277.853 620.038 279.104 619.725 280.304L611.529 280.857C610.609 281.031 609.653 280.856 608.871 280.37C607.994 279.639 608.113 278.358 607.91 277.273C607.419 274.656 604.69 272.822 601.906 272.352C599.121 271.882 596.271 272.484 593.514 273.08C592.343 273.475 591.057 273.448 589.907 273.002C589.247 272.599 588.746 272.005 588.479 271.31C587.27 268.557 588.401 265.322 590.342 262.967C592.284 260.613 594.942 258.892 597.33 256.932C603.039 252.229 607.233 246.119 609.439 239.294C613.951 237.519 618.622 235.107 623.134 233.332C630.09 230.025 637.891 228.606 645.659 229.234L660.938 229.508C665.462 229.589 670.108 229.693 674.291 231.313C678.474 232.932 682.15 236.435 682.439 240.675C682.526 241.155 682.482 241.648 682.31 242.108C682.139 242.567 681.846 242.979 681.459 243.303C680.868 243.605 680.199 243.747 679.527 243.712C675.308 243.851 673.509 244.838 669.291 244.977Z" fill="#3F3D56"/>
<path id="Vector_23" d="M544.538 296.719C545.135 296.189 545.565 295.514 545.78 294.769C545.995 294.024 545.987 293.238 545.758 292.497C544.305 291.97 542.725 291.835 541.195 292.106C539.665 292.378 538.246 293.045 537.098 294.032C536.193 294.892 535.412 295.86 534.778 296.912C532.77 299.988 530.994 303.663 532.158 307.101C532.252 307.476 532.426 307.83 532.668 308.141C532.911 308.452 533.216 308.714 533.568 308.913C534.09 309.11 534.652 309.192 535.212 309.155C537.424 309.152 539.634 309.024 541.83 308.772C543.178 308.618 544.744 308.26 545.265 307.082C545.95 305.534 544.292 303.781 544.775 302.167C545.093 301.445 545.575 300.797 546.187 300.268C546.491 300.002 546.724 299.673 546.869 299.307C547.013 298.941 547.065 298.549 547.02 298.161C546.825 297.404 545.59 296.974 545.145 297.632" fill="#3F3D56"/>
<path id="Vector_24" d="M556.008 282.756C554.043 282.332 552.018 282.213 550.012 282.402C549.568 282.39 549.128 282.483 548.734 282.675C548.352 282.939 548.075 283.316 547.947 283.745C547.523 285.022 547.627 286.402 548.238 287.61C548.849 288.818 549.923 289.766 551.245 290.264C551.965 290.42 552.655 290.68 553.29 291.036C554.986 292.272 553.904 294.797 554.226 296.79C554.586 299.028 556.893 300.907 556.47 303.135C556.137 304.891 554.14 306.281 554.461 308.038C554.798 309.879 557.286 310.432 559.268 310.579C560.417 310.768 561.6 310.641 562.674 310.213C563.75 309.522 564.515 308.481 564.822 307.291C565.634 305.022 565.975 302.628 565.827 300.239C565.818 299.152 565.528 298.084 564.98 297.126C564.383 296.367 563.722 295.656 563.001 294.998C559.203 290.849 563.203 284.66 556.008 282.756Z" fill="#3F3D56"/>
</g>
<g id="lines">
<path id="Vector_25" opacity="0.8" d="M1055.52 607.799C1055.52 607.799 764.585 450.973 639.331 480.687C639.331 480.687 373.882 507.513 343.118 566.529C343.118 566.529 258.737 318.908 227.973 310.654" stroke="#6C63FF" stroke-width="2" stroke-miterlimit="10"/>
<path id="Vector_26" opacity="0.8" d="M342.145 568.525C390.928 446.366 830.414 311 830.414 311C768.007 325.857 638.359 482.684 638.359 482.684C638.359 482.684 364.12 295.317 227 312.651C227 312.651 830.853 331.222 1054.55 609.796" stroke="#6C63FF" stroke-width="2" stroke-miterlimit="10"/>
</g>
<g id="dots">
<path id="Vector_27" d="M227.973 322.623C235.012 322.623 240.718 317.264 240.718 310.654C240.718 304.044 235.012 298.686 227.973 298.686C220.934 298.686 215.228 304.044 215.228 310.654C215.228 317.264 220.934 322.623 227.973 322.623Z" fill="#6C63FF"/>
<path id="Vector_28" d="M343.118 578.497C350.157 578.497 355.863 573.139 355.863 566.529C355.863 559.919 350.157 554.561 343.118 554.561C336.079 554.561 330.373 559.919 330.373 566.529C330.373 573.139 336.079 578.497 343.118 578.497Z" fill="#6C63FF"/>
<path id="Vector_29" d="M831.387 320.972C838.426 320.972 844.132 315.613 844.132 309.004C844.132 302.394 838.426 297.035 831.387 297.035C824.348 297.035 818.642 302.394 818.642 309.004C818.642 315.613 824.348 320.972 831.387 320.972Z" fill="#6C63FF"/>
<path id="Vector_30" d="M1055.52 619.767C1062.56 619.767 1068.27 614.409 1068.27 607.799C1068.27 601.189 1062.56 595.831 1055.52 595.831C1048.49 595.831 1042.78 601.189 1042.78 607.799C1042.78 614.409 1048.49 619.767 1055.52 619.767Z" fill="#6C63FF"/>
<path id="Vector_31" d="M639.331 492.655C646.37 492.655 652.077 487.297 652.077 480.687C652.077 474.077 646.37 468.719 639.331 468.719C632.293 468.719 626.586 474.077 626.586 480.687C626.586 487.297 632.293 492.655 639.331 492.655Z" fill="#6C63FF"/>
</g>
</g>
</svg>
