<svg width="882" height="572" viewBox="0 0 882 572" fill="none" xmlns="http://www.w3.org/2000/svg">
<g id="earth 1" clip-path="url(#clip0_1_2)">
<g id="planetEarth">
<path id="Vector" d="M555.533 208.739C555.465 242.811 542.298 275.626 518.622 300.733C494.947 325.839 462.475 341.42 427.59 344.414C392.705 347.407 357.931 337.596 330.104 316.909C302.278 296.221 283.411 266.155 277.214 232.62C271.017 199.085 277.937 164.508 296.615 135.686C315.293 106.864 344.376 85.8822 378.148 76.8655C411.92 67.8488 447.937 71.4494 479.118 86.9596C510.299 102.47 534.39 128.768 546.653 160.683C546.959 161.484 547.257 162.286 547.547 163.095V163.102C548.842 166.659 549.982 170.282 550.968 173.971C554.009 185.323 555.543 197.008 555.533 208.739V208.739Z" fill="#3F3D56"/>
<path id="Vector_2" d="M398.872 116.043C392.526 112.704 385.48 110.82 378.271 110.533C371.063 110.246 363.882 111.564 357.277 114.388C351.462 116.85 345.338 121.268 343.398 129.245C351.244 124.739 361.402 131.858 363.421 143.277L362.949 143.404C361.883 151.313 364.264 159.925 368.873 164.83C369.215 162.617 370.06 160.506 371.346 158.65C372.632 156.794 374.327 155.241 376.307 154.102C379.694 151.936 383.44 150.363 386.025 146.64C389.089 142.226 389.867 135.776 391.084 129.892C392.301 124.007 394.611 117.683 398.872 116.043Z" fill="#6C63FF"/>
<path id="Vector_3" d="M354.95 183.352C352.777 186.527 349.874 188.52 347.269 191C344.263 193.661 342.29 197.249 341.684 201.159C341.354 203.923 341.864 206.731 341.793 209.525C341.723 212.319 340.766 215.463 338.812 216.158C335.729 217.242 333.376 211.67 330.206 211.28C327.688 210.975 325.421 214.83 326.15 218.173C326.88 221.516 330.308 222.997 332.277 220.814C334.058 223.722 332.803 228.996 330.128 229.889C329.845 231.721 329.563 233.545 329.288 235.377C322.526 230.775 315.693 226.096 309.942 219.356C303.547 211.924 299.58 202.802 298.551 193.16C297.806 185.413 298.912 176.551 295.256 170.59C292.33 165.82 287.309 164.766 282.79 165.064C281.967 165.117 281.135 165.209 280.311 165.308C282.976 157.521 286.361 149.985 290.424 142.791C291.343 142.407 292.197 141.89 292.958 141.257C297.163 137.784 299.03 130.754 302.442 125.892C302.662 125.579 302.89 125.274 303.125 124.976C306.616 120.542 311.292 118.26 315.81 116.138C325.813 111.413 336.106 106.627 346.665 107.284L343.66 107.566C340.154 117.122 336.644 126.679 333.132 136.235C332.599 137.7 332.06 139.168 331.516 140.639C329.523 146.073 327.468 151.859 327.774 157.943C327.955 161.545 329.241 165.392 331.689 166.629C333.972 167.774 336.466 166.369 338.671 164.98C339.604 164.4 340.53 163.82 341.464 163.232C344.814 161.133 348.524 158.981 352.062 160.385C355.303 161.667 357.695 165.949 358.15 170.567C358.568 175.056 357.442 179.553 354.95 183.352Z" fill="#6C63FF"/>
<path id="Vector_4" d="M374.873 248.595C365.089 242.734 355.306 236.873 345.522 231.013L345.688 230.596C339.605 232.851 337.08 243.371 338.085 251.974C339.09 260.577 342.499 268.268 344.221 276.651C346.543 288.123 345.667 299.99 341.683 311.021C354.548 296.976 365.933 281.712 375.668 265.458C377.028 263.409 378.064 261.174 378.742 258.826C379.46 256.324 379.204 253.652 378.023 251.322C377.222 250.172 376.14 249.235 374.873 248.595Z" fill="#6C63FF"/>
<path id="Vector_5" d="M336.26 141.969C335.112 144.369 334.935 147.102 335.765 149.623C336.73 151.654 338.481 153.232 340.637 154.013L346.043 156.62C347.841 157.488 349.78 158.364 351.613 157.65C353.824 156.79 355.357 153.417 354.961 150.285C354.539 146.953 352.38 144.661 350.383 142.71C347.589 139.978 344.795 137.247 342.001 134.515L340.427 136.392C338.724 138.008 337.315 139.894 336.26 141.969V141.969Z" fill="#6C63FF"/>
<path id="Vector_6" d="M526.554 177.589C528.986 178.147 531.418 178.704 533.85 179.261C533.426 187.253 529.354 194.649 523.894 197.328C521.619 198.442 519.085 198.854 517.202 200.938C515.5 202.831 514.637 205.777 513.845 208.594C512.456 213.509 511.067 218.425 509.679 223.34C508.188 228.637 506.274 234.522 502.399 236.431C499.072 238.071 495.267 236.064 492.71 232.698C490.152 229.332 488.591 224.806 487.077 220.394C487.171 225.203 484.873 229.92 481.617 231.591C478.353 233.263 474.384 231.752 472.203 228.019C470.634 225.34 469.983 221.806 468.445 219.089C466.907 216.372 463.683 214.814 462.004 217.364C460.898 219.058 461.039 221.653 460.49 223.806C460.213 225.235 459.486 226.545 458.409 227.553C457.332 228.561 455.959 229.218 454.481 229.431C453.121 229.401 451.782 229.102 450.546 228.552C449.309 228.002 448.2 227.213 447.287 226.233C442.482 221.452 439.355 215.315 438.351 208.701C437.67 205.529 437.756 202.247 438.602 199.114C439.567 196.145 441.897 193.855 444.211 194.42C445.733 191.29 442.729 187.138 440.022 187.504C437.308 187.871 435.182 190.702 432.954 192.878C430.734 195.053 427.627 196.633 425.391 194.473C425.441 195.263 425.166 196.04 424.627 196.633C424.089 197.226 423.33 197.587 422.518 197.635C422.437 197.64 422.357 197.642 422.276 197.641C420.79 197.225 419.408 196.513 418.221 195.549C413.098 192.443 406.594 194.504 402.954 200.381C405.229 190.962 408.563 180.154 415.553 177.94C418.409 177.032 421.523 177.78 424.222 176.208C429 173.422 429.965 162.896 425.838 158.553C426.364 162.66 426.262 167.453 424.034 170.262C421.806 173.071 417.13 171.239 417.413 167.087C417.349 167.671 417.097 168.22 416.693 168.656C416.289 169.093 415.754 169.393 415.163 169.515C414.573 169.637 413.958 169.574 413.407 169.336C412.855 169.097 412.396 168.694 412.094 168.186C410.611 165.988 410.736 162.392 411.788 159.767C412.871 157.389 414.425 155.241 416.361 153.447C420.088 149.562 423.869 145.631 428.184 143.188C432.507 140.746 437.496 139.922 441.827 142.349C444.11 143.631 446.118 145.768 448.448 146.898C448.995 147.228 449.605 147.451 450.24 147.552C450.876 147.654 451.526 147.633 452.154 147.49C452.781 147.347 453.373 147.085 453.897 146.719C454.42 146.354 454.865 145.891 455.204 145.358C455.23 145.317 455.256 145.276 455.281 145.234C457.015 142.272 456.199 137.876 456.842 134.174C457.995 127.633 464.719 124.572 468.445 128.892C465.66 128.198 462.781 131.403 462.436 135.289C462.083 139.174 464.099 143.097 466.798 144.272C471.332 146.226 475.772 141.311 479.201 136.762C482.778 131.999 486.361 127.238 489.948 122.481C490.521 121.671 491.164 120.91 491.87 120.206C492.994 119.14 494.492 118.53 496.061 118.499C497.63 118.468 499.152 119.018 500.32 120.038C503.944 122.916 505.646 128.816 508.62 132.877C512.935 138.777 519.391 140.212 525.4 141.357C529.88 142.204 534.362 143.056 538.847 143.914C541.837 149.325 544.445 154.927 546.653 160.683C538.429 164.332 531.453 170.199 526.554 177.589Z" fill="#6C63FF"/>
<path id="Vector_7" d="M550.968 173.971C550.049 176.607 549.546 179.364 549.477 182.146C545.633 177.582 545.021 169.025 547.547 163.102C548.842 166.659 549.982 170.282 550.968 173.971Z" fill="#6C63FF"/>
<path id="Vector_8" d="M541.036 269.427C537.675 276.067 533.765 282.431 529.347 288.456C526.522 287.28 523.486 289.379 520.842 291.348C518.081 293.409 514.762 295.417 511.93 293.539C509.036 291.616 508.102 286.235 509.02 281.968C510.075 278.032 511.92 274.338 514.449 271.099C516.802 267.679 519.32 264.13 522.592 262.802C525.871 261.474 530.084 263.351 531.041 267.885L533.363 267.809C532.061 266.069 532.744 262.466 534.493 261.832C536.509 261.092 538.259 263.786 539.451 266.168C539.985 267.244 540.526 268.328 541.036 269.427Z" fill="#6C63FF"/>
<path id="Vector_9" d="M452.099 237.187C447.108 237.492 443.154 231.514 440.527 225.633C437.9 219.751 435.503 213.026 430.999 210.032C428.425 208.322 425.492 208.087 422.7 207.258C421.117 206.869 419.652 206.118 418.427 205.069C417.201 204.019 416.25 202.7 415.653 201.221L412.487 199.977C408.058 202.131 404.002 204.945 400.466 208.316C396.425 212.493 393.908 217.847 393.303 223.552C392.698 229.718 394.931 236.594 399.105 238.91C402.402 240.74 406.241 239.587 409.581 241.262C413.754 243.356 416.232 249.437 417.17 255.441C418.108 261.446 417.87 267.685 418.541 273.758C419.212 279.83 421.061 286.149 424.888 289.261C429.678 293.155 436.705 289.919 438.854 282.83C439.908 279.353 439.871 275.43 440.66 271.82C442.048 265.464 445.794 260.748 448.765 255.534C451.736 250.32 454.075 243.238 452.099 237.187Z" fill="#6C63FF"/>
<path id="Vector_10" d="M402.778 174.727C403.243 175.143 403.677 175.592 404.077 176.069C404.491 176.763 404.703 177.555 404.689 178.357C404.674 179.16 404.436 179.943 403.998 180.624C404.599 180.59 405.186 180.436 405.723 180.171C406.26 179.905 406.734 179.534 407.116 179.081C408.027 178.072 408.829 176.974 409.508 175.804C409.827 175.403 410.055 174.941 410.177 174.448C410.298 173.955 410.311 173.443 410.213 172.945C409.977 172.29 409.42 172.011 409.029 171.519C408.487 170.556 408.117 169.511 407.935 168.428C407.718 167.412 407.215 166.476 406.481 165.724C405.747 164.972 404.813 164.433 403.782 164.169L404.032 164.216C403.606 164.462 403.27 164.831 403.071 165.272C402.872 165.713 402.819 166.204 402.921 166.675C403.072 167.627 403.701 168.418 403.639 169.39C403.549 170.787 402.114 171.442 402.025 172.839C402.011 173.54 402.282 174.218 402.778 174.727V174.727Z" fill="#6C63FF"/>
<path id="Vector_11" d="M394.226 150.988L394.248 150.984C394.401 150.848 394.544 150.7 394.674 150.543L394.226 150.988Z" fill="#6C63FF"/>
<path id="Vector_12" d="M395.723 157.545C396.322 157.033 396.766 156.371 397.004 155.631C397.243 154.89 397.269 154.1 397.078 153.347C396.715 151.759 395.432 150.691 394.248 150.984C393.905 151.323 393.478 151.571 393.009 151.706C392.54 151.84 392.044 151.856 391.566 151.752C390.835 151.569 390.031 151.097 389.396 151.633C389.033 152.034 388.779 152.517 388.657 153.038C388.422 153.739 388.187 154.441 387.952 155.143C387.841 155.394 387.812 155.672 387.869 155.94C387.914 156.048 387.987 156.142 388.08 156.214C388.173 156.286 388.284 156.334 388.402 156.352C389.811 156.756 391.221 157.161 392.63 157.565C393.116 157.783 393.644 157.894 394.179 157.89C394.713 157.887 395.24 157.769 395.723 157.545V157.545Z" fill="#6C63FF"/>
<path id="Vector_13" d="M502.135 248.069C501.483 247.032 500.832 245.994 500.18 244.956C499.54 243.754 498.665 242.685 497.604 241.809C497.375 241.622 497.109 241.48 496.823 241.393C496.537 241.305 496.237 241.274 495.938 241.299C495.639 241.325 495.349 241.408 495.083 241.542C494.817 241.677 494.582 241.862 494.389 242.085L494.355 242.126L494.434 242.719C496.179 244.538 497.368 246.795 497.868 249.236C498.016 250.297 497.965 251.394 498.095 252.46C498.109 252.954 498.222 253.44 498.429 253.891C498.637 254.343 498.933 254.75 499.302 255.089C500.328 255.756 501.533 254.773 502.263 253.573C502.916 252.588 503.209 251.417 503.094 250.25C502.932 249.467 502.605 248.725 502.135 248.069V248.069Z" fill="#6C63FF"/>
<path id="Vector_14" d="M512.356 249.42C512.481 248.449 512.399 247.462 512.118 246.522C512.071 245.25 512.418 243.994 513.113 242.916C513.803 241.899 514.326 240.783 514.663 239.609C514.805 239.074 514.779 238.51 514.589 237.99C514.373 237.518 513.851 237.303 513.551 237.677L514.192 238.079C513.326 237.928 512.437 237.97 511.59 238.201C511.107 238.381 510.675 238.672 510.332 239.048C509.989 239.425 509.744 239.876 509.618 240.364C509.512 241.125 509.339 241.876 509.101 242.609C508.718 243.374 507.978 243.628 507.512 244.3C507.195 244.895 507.035 245.557 507.046 246.228C507.058 246.898 507.24 247.555 507.578 248.14C508.162 249.096 509.091 249.807 510.184 250.134C510.967 250.407 511.998 250.422 512.356 249.42Z" fill="#6C63FF"/>
<path id="Vector_15" d="M530.559 254.763C530.842 255.48 531.221 256.157 531.687 256.778C532.558 257.632 533.742 257.107 534.8 256.899C535.759 256.752 536.741 256.86 537.643 257.211C538.544 257.563 539.331 258.146 539.92 258.897C539.51 256.908 538.615 255.043 537.311 253.46C536.006 251.877 534.331 250.621 532.424 249.799C529.947 248.965 527.336 248.568 524.716 248.626L524.268 248.738C525.409 251.968 528.991 251.896 530.559 254.763Z" fill="#6C63FF"/>
<path id="Vector_16" d="M453.465 261.371L453.471 261.386L453.601 261.141L453.465 261.371Z" fill="#6C63FF"/>
<path id="Vector_17" d="M450.703 266.572C450.101 267.635 449.583 268.742 449.154 269.883C448.586 271.73 448.21 273.628 448.031 275.548C447.891 276.64 447.848 278.035 448.551 278.567C448.753 278.697 448.996 278.751 449.236 278.72C449.477 278.688 449.697 278.572 449.855 278.394C450.246 277.992 450.566 277.53 450.801 277.026C452.183 274.711 453.256 272.233 453.994 269.654C454.764 266.917 454.58 264.01 453.471 261.386C452.549 263.114 451.626 264.843 450.703 266.572Z" fill="#6C63FF"/>
<path id="Vector_18" d="M424.064 128.024C424.503 128.442 425.057 128.725 425.659 128.839C426.261 128.953 426.884 128.894 427.452 128.668C428.628 128.168 429.706 127.475 430.64 126.619C431.413 126.062 432.069 125.366 432.572 124.568C432.85 124.091 433.027 123.566 433.095 123.022C433.163 122.478 433.12 121.927 432.968 121.399C432.752 120.894 432.407 120.45 431.966 120.111C431.524 119.771 431.001 119.547 430.446 119.458C428.882 119.007 427.317 118.556 425.752 118.104L426.884 117.112C425.72 116.504 424.432 117.632 423.704 119.029C423.237 119.941 422.912 120.916 422.738 121.921C422.491 122.971 422.481 124.061 422.71 125.115C422.939 126.169 423.401 127.162 424.064 128.024V128.024Z" fill="#6C63FF"/>
<path id="Vector_19" d="M451.686 119.002C452.127 119.475 452.737 119.767 453.391 119.819C454.045 119.871 454.695 119.679 455.209 119.281C455.651 118.958 456.018 118.548 456.287 118.077C456.555 117.607 456.719 117.087 456.767 116.551C456.878 115.353 456.269 114.023 455.4 113.919L455.599 112.798C453.925 112.504 451.865 112.445 450.967 114.423C450.665 115.181 450.572 116.003 450.698 116.806C450.824 117.61 451.165 118.367 451.686 119.002V119.002Z" fill="#6C63FF"/>
</g>
<path id="line2" d="M718.952 368.122C706.034 368.122 691.876 367.647 676.477 366.697C596.83 361.776 493.663 344.668 385.98 318.524C278.297 292.381 178.963 260.324 106.277 228.262C70.87 212.643 43.6951 197.858 25.5083 184.318C6.25317 169.983 -2.16929 157.488 0.473885 147.182C5.62399 127.103 51.2261 122.71 88.5747 122.561L88.5874 125.481C37.2979 125.686 7.03965 133.644 3.38627 147.889C-1.26753 166.032 36.6868 194.357 107.517 225.602C180.043 257.594 279.194 289.589 386.707 315.692C494.219 341.793 597.196 358.872 676.668 363.783C754.279 368.579 801.463 360.924 806.116 342.78C809.98 327.716 784.509 305.525 734.397 280.293L735.776 277.7C772.189 296.034 814.455 322.329 809.029 343.487C806.385 353.794 792.917 360.973 768.997 364.826C755.362 367.021 738.614 368.122 718.952 368.122Z" fill="#6C63FF"/>
<path id="line1" d="M226.091 371.924C190.477 371.925 157.368 370.736 127.728 368.337C88.9848 365.2 58.284 360.157 36.479 353.351C13.3926 346.143 1.14484 337.128 0.075538 326.556C-2.00833 305.962 39.426 286.917 74.552 274.567L75.572 277.314C27.335 294.273 1.58403 311.659 3.06215 326.271C4.94477 344.88 50.4741 359.152 127.976 365.426C207.335 371.851 311.77 369.574 422.046 359.012C532.323 348.453 635.211 330.876 711.759 309.522C786.516 288.667 828.312 266.033 826.43 247.423C824.867 231.973 793.213 219.398 737.301 212.014L737.704 209.121C778.331 214.486 827.221 225.436 829.416 247.137C830.486 257.709 820.279 268.874 799.081 280.322C779.058 291.136 749.957 301.904 712.586 312.329C635.869 333.731 532.791 351.341 422.34 361.919C353.052 368.553 286.038 371.924 226.091 371.924Z" fill="#6C63FF"/>
<path id="planet4" d="M632.49 286.034C642.15 286.034 649.981 278.415 649.981 269.017C649.981 259.619 642.15 252 632.49 252C622.831 252 615 259.619 615 269.017C615 278.415 622.831 286.034 632.49 286.034Z" fill="#6C63FF"/>
<path id="planet3" d="M93.6134 333.133C103.273 333.133 111.104 325.514 111.104 316.115C111.104 306.717 103.273 299.098 93.6134 299.098C83.9537 299.098 76.123 306.717 76.123 316.115C76.123 325.514 83.9537 333.133 93.6134 333.133Z" fill="#8D1B60"/>
<path id="planet2" d="M642.707 173.834C648.62 173.834 653.414 169.17 653.414 163.417C653.414 157.664 648.62 153 642.707 153C636.794 153 632 157.664 632 163.417C632 169.17 636.794 173.834 642.707 173.834Z" fill="#FF6584"/>
<path id="planet1" opacity="0.1" d="M241.49 117.034C251.15 117.034 258.981 109.415 258.981 100.017C258.981 90.6188 251.15 83 241.49 83C231.831 83 224 90.6188 224 100.017C224 109.415 231.831 117.034 241.49 117.034Z" fill="#928181"/>
</g>
<defs>
<clipPath id="clip0_1_2">
<rect width="882" height="572" fill="white"/>
</clipPath>
</defs>
</svg>
