<svg width="886" height="655" viewBox="0 0 886 655" fill="none" xmlns="http://www.w3.org/2000/svg">
<g id="undraw_environment_iaus 1" clip-path="url(#clip0_1_2)">
<path id="Vector" d="M377.697 443.685C377.697 443.685 495.36 429.565 536.542 407.209C577.724 384.854 883.647 374.264 883.647 443.685C883.647 513.106 531.835 543.698 531.835 543.698L347.105 533.109L377.697 443.685Z" fill="#FBBEBE"/>
<path id="Vector_2" opacity="0.1" d="M377.697 443.685C377.697 443.685 495.36 429.565 536.542 407.209C577.724 384.854 883.647 374.264 883.647 443.685C883.647 513.106 531.835 543.698 531.835 543.698L347.105 533.109L377.697 443.685Z" fill="black"/>
<path id="Vector_3" d="M411.819 430.742L387.11 502.516L0 507.223V401.326C0 401.326 148.255 367.204 265.918 440.155C265.918 440.155 404.76 423.682 411.819 430.742Z" fill="#6C63FF"/>
<path id="Vector_4" opacity="0.1" d="M411.819 430.626L387.11 502.401L0 507.107V401.211C0 401.211 148.255 367.088 265.918 440.039C265.918 440.039 404.76 423.567 411.819 430.626Z" fill="black"/>
<path id="Vector_5" d="M854.404 400.738C854.404 404.748 845.411 407.725 844.527 411.594C843.65 415.431 848.993 421.265 847.302 424.93C845.555 428.677 843.49 432.267 841.131 435.662C838.916 438.834 832.074 438.371 829.269 441.345C826.522 444.046 823.612 446.576 820.556 448.921C817.579 451.397 813.546 451.916 810.161 454.195C806.943 456.362 807.332 464.311 803.772 466.284C800.37 468.17 795.162 466.653 791.471 468.348C787.929 469.975 786.061 475.859 782.274 477.298C778.622 478.685 774.102 478.088 770.24 479.29C766.503 480.453 762.322 480.264 758.406 481.244C754.604 482.195 751.7 487.895 747.744 488.663C743.89 489.412 739.374 487.415 735.388 487.982C731.497 488.536 726.971 483.61 722.967 483.983C719.049 484.348 715.357 486.628 711.344 486.812C707.409 486.993 703.519 488.726 699.505 488.726C695.491 488.726 691.35 492.491 687.416 492.311C683.403 492.126 679.77 486.419 675.852 486.055C671.848 485.682 667.072 491.643 663.18 491.089C659.195 490.522 656.039 484.687 652.185 483.938C648.228 483.17 643.118 487.34 639.315 486.389C635.398 485.409 633.074 478.621 629.336 477.457C625.475 476.256 620.689 477.884 617.037 476.496C613.25 475.057 608.636 475.288 605.093 473.661C601.403 471.966 598.753 467.955 595.351 466.069C591.791 464.096 590.149 459.202 586.931 457.035C583.545 454.755 578.388 455.046 575.411 452.57C572.268 449.956 566.379 449.82 563.727 447.008C560.921 444.033 559.786 439.039 557.572 435.867C555.239 432.527 559.817 425.465 558.188 421.934C556.499 418.27 549.433 416.782 548.556 412.945C547.652 408.939 547.188 404.845 547.172 400.738C547.172 396.728 553.215 393.663 554.099 389.795C554.976 385.958 550.528 380.447 552.219 376.783C553.848 373.252 553.64 367.824 555.973 364.483C558.188 361.312 563.716 360.068 566.521 357.094C569.173 354.282 573.921 353.498 577.064 350.884C580.04 348.409 579.661 340.943 583.046 338.664C586.265 336.497 590.759 335.508 594.319 333.535C597.721 331.649 602.536 331.967 606.226 330.272C609.768 328.645 615.317 331.851 619.104 330.412C622.756 329.024 625.718 325.991 629.579 324.789C633.316 323.626 635.072 314.754 638.988 313.775C642.79 312.824 647.469 314.403 651.425 313.634C655.279 312.885 660.465 319.885 664.45 319.318C668.341 318.764 671.252 309.42 675.255 309.047C679.174 308.682 683.592 313.522 687.605 313.338C691.54 313.157 695.491 315.993 699.505 315.993C703.518 315.993 707.517 312.101 711.451 312.281C715.464 312.466 719.002 317.609 722.92 317.973C726.924 318.346 731.839 310.524 735.731 311.077C739.716 311.645 742.795 317.692 746.649 318.44C750.606 319.209 755.561 315.455 759.365 316.406C763.281 317.385 765.637 323.813 769.375 324.976C773.236 326.178 775.615 330.712 779.267 332.1C783.054 333.539 790.09 326.806 793.633 328.433C797.323 330.128 800.511 333.061 803.913 334.947C807.473 336.92 813.133 335.928 816.352 338.095C819.737 340.374 820.569 346.493 823.546 348.969C826.689 351.583 831.874 352.37 834.526 355.182C837.331 358.156 837.721 363.486 839.936 366.658C842.268 369.998 842.196 374.626 843.824 378.157C845.514 381.821 850.026 384.592 850.902 388.428C851.786 392.296 854.404 396.729 854.404 400.738Z" fill="#3F3D56"/>
<path id="Vector_6" d="M419.59 496.163C419.59 496.163 552.548 427.919 638.442 453.804C724.336 479.69 844.352 434.978 858.471 450.275C872.591 465.571 892.594 630.298 723.159 639.711C553.725 649.124 409 611.472 409 611.472L419.59 496.163Z" fill="#FBBEBE"/>
<path id="Vector_7" d="M399.334 467.009C399.334 467.009 451.825 463.688 449.471 482.514C447.118 501.34 444.765 647.241 430.645 650.771C416.526 654.301 304.746 654.301 258.858 654.301H0V428.727C0 428.727 183.554 417.799 275.331 463.688C275.331 463.688 385.672 462.095 399.334 467.009Z" fill="#6C63FF"/>
<g id="branches">
<path id="Vector_8" d="M646.334 105C641.318 105.283 636.481 106.958 632.364 109.837C628.247 112.715 625.013 116.684 623.025 121.297C617.196 135.386 624.701 151.935 635.967 162.209C647.232 172.483 661.704 178.355 674.852 186.074C692.513 196.441 708.382 210.833 717.219 229.308C726.055 247.782 726.995 270.666 716.608 288.315C706.967 304.697 689.437 314.501 672.718 323.543" stroke="#3F3D56" stroke-miterlimit="10"/>
<path id="Vector_9" d="M692.304 28.2855C687.289 28.5688 682.451 30.2436 678.334 33.1223C674.217 36.0009 670.984 39.9694 668.996 44.5829C663.167 58.6716 670.672 75.2209 681.937 85.4946C693.203 95.7682 707.674 101.641 720.823 109.359C738.483 119.727 754.353 134.119 763.19 152.593C772.026 171.067 772.966 193.952 762.579 211.601C752.938 227.982 735.408 237.787 718.688 246.829" stroke="#3F3D56" stroke-miterlimit="10"/>
<path id="Vector_10" d="M847.051 48.0406C842.911 45.1942 838.061 43.5571 833.043 43.3129C828.026 43.0687 823.039 44.2271 818.643 46.6581C805.409 54.2304 801.212 71.9104 803.831 86.9305C806.45 101.951 814.298 115.453 819.969 129.606C827.587 148.615 831.325 169.71 827.003 189.727C822.681 209.745 809.415 228.415 790.397 236.012C772.745 243.064 752.882 240.084 734.126 236.999" stroke="#3F3D56" stroke-miterlimit="10"/>
</g>
<g id="leaves">
<path id="Vector_11" d="M707.153 223.252C722.749 223.252 735.392 217.111 735.392 209.536C735.392 201.961 722.749 195.82 707.153 195.82C691.557 195.82 678.914 201.961 678.914 209.536C678.914 217.111 691.557 223.252 707.153 223.252Z" stroke="#3F3D56" stroke-miterlimit="10"/>
<path id="Vector_12" d="M768.337 211.486C783.933 211.486 796.576 205.345 796.576 197.77C796.576 190.195 783.933 184.054 768.337 184.054C752.741 184.054 740.098 190.195 740.098 197.77C740.098 205.345 752.741 211.486 768.337 211.486Z" stroke="#3F3D56" stroke-miterlimit="10"/>
<path id="Vector_13" d="M777.75 263.258C793.346 263.258 805.989 257.117 805.989 249.541C805.989 241.966 793.346 235.825 777.75 235.825C762.154 235.825 749.511 241.966 749.511 249.541C749.511 257.117 762.154 263.258 777.75 263.258Z" stroke="#3F3D56" stroke-miterlimit="10"/>
<path id="Vector_14" d="M771.867 133.829C787.463 133.829 800.106 127.688 800.106 120.113C800.106 112.537 787.463 106.396 771.867 106.396C756.271 106.396 743.628 112.537 743.628 120.113C743.628 127.688 756.271 133.829 771.867 133.829Z" stroke="#3F3D56" stroke-miterlimit="10"/>
<path id="Vector_15" d="M689.239 28.4322C704.835 28.4322 717.478 22.2913 717.478 14.7161C717.478 7.14091 704.835 1 689.239 1C673.643 1 661 7.14091 661 14.7161C661 22.2913 673.643 28.4322 689.239 28.4322Z" fill="#57B894"/>
<path id="Vector_16" d="M701.27 125.592C716.866 125.592 729.509 119.451 729.509 111.876C729.509 104.301 716.866 98.16 701.27 98.16C685.674 98.16 673.031 104.301 673.031 111.876C673.031 119.451 685.674 125.592 701.27 125.592Z" stroke="#3F3D56" stroke-miterlimit="10"/>
<path id="Vector_17" d="M733.039 96.1766C748.635 96.1766 761.278 90.0357 761.278 82.4605C761.278 74.8853 748.635 68.7444 733.039 68.7444C717.443 68.7444 704.799 74.8853 704.799 82.4605C704.799 90.0357 717.443 96.1766 733.039 96.1766Z" stroke="#3F3D56" stroke-miterlimit="10"/>
<path id="Vector_18" d="M802.459 102.06C818.055 102.06 830.699 95.9188 830.699 88.3436C830.699 80.7684 818.055 74.6275 802.459 74.6275C786.863 74.6275 774.22 80.7684 774.22 88.3436C774.22 95.9188 786.863 102.06 802.459 102.06Z" stroke="#3F3D56" stroke-miterlimit="10"/>
<path id="Vector_19" d="M854.231 140.888C869.827 140.888 882.47 134.747 882.47 127.172C882.47 119.597 869.827 113.456 854.231 113.456C838.635 113.456 825.992 119.597 825.992 127.172C825.992 134.747 838.635 140.888 854.231 140.888Z" stroke="#3F3D56" stroke-miterlimit="10"/>
<path id="Vector_20" d="M699.239 130.432C714.835 130.432 727.478 124.291 727.478 116.716C727.478 109.141 714.835 103 699.239 103C683.643 103 671 109.141 671 116.716C671 124.291 683.643 130.432 699.239 130.432Z" fill="#57B894"/>
<path id="Vector_21" d="M671.854 72.644C687.45 72.644 700.093 66.5031 700.093 58.9279C700.093 51.3527 687.45 45.2118 671.854 45.2118C656.258 45.2118 643.615 51.3527 643.615 58.9279C643.615 66.5031 656.258 72.644 671.854 72.644Z" stroke="#3F3D56" stroke-miterlimit="10"/>
<path id="Vector_22" d="M734.239 91.4322C749.835 91.4322 762.478 85.2913 762.478 77.7161C762.478 70.1409 749.835 64 734.239 64C718.643 64 706 70.1409 706 77.7161C706 85.2913 718.643 91.4322 734.239 91.4322Z" fill="#57B894"/>
<path id="Vector_23" d="M689.503 27.9322C705.099 27.9322 717.742 21.7913 717.742 14.2161C717.742 6.64091 705.099 0.5 689.503 0.5C673.907 0.5 661.264 6.64091 661.264 14.2161C661.264 21.7913 673.907 27.9322 689.503 27.9322Z" stroke="#3F3D56" stroke-miterlimit="10"/>
<path id="Vector_24" d="M853.054 60.8778C868.65 60.8778 881.294 54.7369 881.294 47.1617C881.294 39.5865 868.65 33.4456 853.054 33.4456C837.458 33.4456 824.815 39.5865 824.815 47.1617C824.815 54.7369 837.458 60.8778 853.054 60.8778Z" stroke="#3F3D56" stroke-miterlimit="10"/>
<path id="Vector_25" d="M592.239 169.432C607.835 169.432 620.478 163.291 620.478 155.716C620.478 148.141 607.835 142 592.239 142C576.643 142 564 148.141 564 155.716C564 163.291 576.643 169.432 592.239 169.432Z" fill="#57B894"/>
<path id="Vector_26" d="M593.02 169.127C608.616 169.127 621.259 162.987 621.259 155.411C621.259 147.836 608.616 141.695 593.02 141.695C577.424 141.695 564.781 147.836 564.781 155.411C564.781 162.987 577.424 169.127 593.02 169.127Z" stroke="#3F3D56" stroke-miterlimit="10"/>
<path id="Vector_27" d="M690.68 162.068C706.276 162.068 718.919 155.927 718.919 148.352C718.919 140.776 706.276 134.635 690.68 134.635C675.084 134.635 662.441 140.776 662.441 148.352C662.441 155.927 675.084 162.068 690.68 162.068Z" stroke="#3F3D56" stroke-miterlimit="10"/>
<path id="Vector_28" d="M818.932 172.657C834.528 172.657 847.171 166.516 847.171 158.941C847.171 151.366 834.528 145.225 818.932 145.225C803.336 145.225 790.693 151.366 790.693 158.941C790.693 166.516 803.336 172.657 818.932 172.657Z" stroke="#3F3D56" stroke-miterlimit="10"/>
<path id="Vector_29" d="M754.218 179.717C769.814 179.717 782.457 173.576 782.457 166.001C782.457 158.426 769.814 152.285 754.218 152.285C738.622 152.285 725.979 158.426 725.979 166.001C725.979 173.576 738.622 179.717 754.218 179.717Z" fill="#57B894"/>
<path id="Vector_30" d="M755.394 59.7011C770.99 59.7011 783.633 53.5602 783.633 45.985C783.633 38.4098 770.99 32.2689 755.394 32.2689C739.798 32.2689 727.155 38.4098 727.155 45.985C727.155 53.5602 739.798 59.7011 755.394 59.7011Z" stroke="#3F3D56" stroke-miterlimit="10"/>
<path id="Vector_31" d="M631.239 129.432C646.835 129.432 659.478 123.291 659.478 115.716C659.478 108.141 646.835 102 631.239 102C615.643 102 603 108.141 603 115.716C603 123.291 615.643 129.432 631.239 129.432Z" fill="#57B894"/>
<path id="Vector_32" d="M634.202 132.652C649.798 132.652 662.441 126.511 662.441 118.936C662.441 111.361 649.798 105.22 634.202 105.22C618.606 105.22 605.963 111.361 605.963 118.936C605.963 126.511 618.606 132.652 634.202 132.652Z" stroke="#3F3D56" stroke-miterlimit="10"/>
<path id="Vector_33" d="M651.239 189.432C666.835 189.432 679.478 183.291 679.478 175.716C679.478 168.141 666.835 162 651.239 162C635.643 162 623 168.141 623 175.716C623 183.291 635.643 189.432 651.239 189.432Z" fill="#57B894"/>
<path id="Vector_34" d="M643.239 191.432C658.835 191.432 671.478 185.291 671.478 177.716C671.478 170.141 658.835 164 643.239 164C627.643 164 615 170.141 615 177.716C615 185.291 627.643 191.432 643.239 191.432Z" stroke="#3F3D56" stroke-miterlimit="10"/>
<path id="Vector_35" d="M673.239 73.4322C688.835 73.4322 701.478 67.2913 701.478 59.7161C701.478 52.1409 688.835 46 673.239 46C657.643 46 645 52.1409 645 59.7161C645 67.2913 657.643 73.4322 673.239 73.4322Z" fill="#57B894"/>
<path id="Vector_36" d="M758.239 59.4322C773.835 59.4322 786.478 53.2913 786.478 45.7161C786.478 38.1409 773.835 32 758.239 32C742.643 32 730 38.1409 730 45.7161C730 53.2913 742.643 59.4322 758.239 59.4322Z" fill="#57B894"/>
<path id="Vector_37" d="M856.239 58.4322C871.835 58.4322 884.478 52.2913 884.478 44.7161C884.478 37.1409 871.835 31 856.239 31C840.643 31 828 37.1409 828 44.7161C828 52.2913 840.643 58.4322 856.239 58.4322Z" fill="#57B894"/>
<path id="Vector_38" d="M856.239 140.432C871.835 140.432 884.478 134.291 884.478 126.716C884.478 119.141 871.835 113 856.239 113C840.643 113 828 119.141 828 126.716C828 134.291 840.643 140.432 856.239 140.432Z" fill="#57B894"/>
<path id="Vector_39" d="M819.239 172.432C834.835 172.432 847.478 166.291 847.478 158.716C847.478 151.141 834.835 145 819.239 145C803.643 145 791 151.141 791 158.716C791 166.291 803.643 172.432 819.239 172.432Z" fill="#57B894"/>
<path id="Vector_40" d="M762.239 211.432C777.835 211.432 790.478 205.291 790.478 197.716C790.478 190.141 777.835 184 762.239 184C746.643 184 734 190.141 734 197.716C734 205.291 746.643 211.432 762.239 211.432Z" fill="#57B894"/>
<path id="Vector_41" d="M750.239 179.432C765.835 179.432 778.478 173.291 778.478 165.716C778.478 158.141 765.835 152 750.239 152C734.643 152 722 158.141 722 165.716C722 173.291 734.643 179.432 750.239 179.432Z" stroke="#3F3D56" stroke-miterlimit="10"/>
<path id="Vector_42" d="M778.239 260.432C793.835 260.432 806.478 254.291 806.478 246.716C806.478 239.141 793.835 233 778.239 233C762.643 233 750 239.141 750 246.716C750 254.291 762.643 260.432 778.239 260.432Z" fill="#57B894"/>
<path id="Vector_43" d="M705.239 222.432C720.835 222.432 733.478 216.291 733.478 208.716C733.478 201.141 720.835 195 705.239 195C689.643 195 677 201.141 677 208.716C677 216.291 689.643 222.432 705.239 222.432Z" fill="#57B894"/>
<path id="Vector_44" d="M694.239 162.432C709.835 162.432 722.478 156.291 722.478 148.716C722.478 141.141 709.835 135 694.239 135C678.643 135 666 141.141 666 148.716C666 156.291 678.643 162.432 694.239 162.432Z" fill="#57B894"/>
<path id="Vector_45" d="M774.239 135.432C789.835 135.432 802.478 129.291 802.478 121.716C802.478 114.141 789.835 108 774.239 108C758.643 108 746 114.141 746 121.716C746 129.291 758.643 135.432 774.239 135.432Z" fill="#57B894"/>
<path id="Vector_46" d="M802.239 99.4322C817.835 99.4322 830.478 93.2913 830.478 85.7161C830.478 78.1409 817.835 72 802.239 72C786.643 72 774 78.1409 774 85.7161C774 93.2913 786.643 99.4322 802.239 99.4322Z" fill="#57B894"/>
</g>
</g>
<defs>
<clipPath id="clip0_1_2">
<rect width="886" height="654.301" fill="white"/>
</clipPath>
</defs>
</svg>
