<svg width="882" height="572" viewBox="0 0 882 572" fill="none" xmlns="http://www.w3.org/2000/svg">
<g id="lines" clip-path="url(#clip0_1_2)">
<path id="line2" d="M718.952 368.122C706.034 368.122 691.876 367.647 676.477 366.697C596.83 361.776 493.663 344.668 385.98 318.524C278.297 292.381 178.963 260.324 106.277 228.262C70.87 212.643 43.6951 197.858 25.5083 184.318C6.25317 169.983 -2.16929 157.488 0.473885 147.182C5.62399 127.103 51.2261 122.71 88.5747 122.561L88.5874 125.481C37.2979 125.686 7.03965 133.644 3.38627 147.889C-1.26753 166.032 36.6868 194.357 107.517 225.602C180.043 257.594 279.194 289.589 386.707 315.692C494.219 341.793 597.196 358.872 676.668 363.783C754.279 368.579 801.463 360.924 806.116 342.78C809.98 327.716 784.509 305.525 734.397 280.293L735.776 277.7C772.189 296.034 814.455 322.329 809.029 343.487C806.385 353.794 792.917 360.973 768.997 364.826C755.362 367.021 738.614 368.122 718.952 368.122Z" fill="#6C63FF"/>
<path id="line1" d="M226.091 371.924C190.477 371.925 157.368 370.736 127.728 368.337C88.9848 365.2 58.284 360.157 36.479 353.351C13.3926 346.143 1.14484 337.128 0.075538 326.556C-2.00833 305.962 39.426 286.917 74.552 274.567L75.572 277.314C27.335 294.273 1.58403 311.659 3.06215 326.271C4.94477 344.88 50.4741 359.152 127.976 365.426C207.335 371.851 311.77 369.574 422.046 359.012C532.323 348.453 635.211 330.876 711.759 309.522C786.516 288.667 828.312 266.033 826.43 247.423C824.867 231.973 793.213 219.398 737.301 212.014L737.704 209.121C778.331 214.486 827.221 225.436 829.416 247.137C830.486 257.709 820.279 268.874 799.081 280.322C779.058 291.136 749.957 301.904 712.586 312.329C635.869 333.731 532.791 351.341 422.34 361.919C353.052 368.553 286.038 371.924 226.091 371.924Z" fill="#6C63FF"/>
</g>
<defs>
<clipPath id="clip0_1_2">
<rect width="882" height="572" fill="white"/>
</clipPath>
</defs>
</svg>
