<svg width="856" height="582" viewBox="0 0 856 582" fill="none" xmlns="http://www.w3.org/2000/svg">
<g id="undraw_maker_launch_re_rq81 1">
<g id="rocket">
<path id="Vector" d="M227.862 578.433L207.561 578.982C204.477 579.137 201.427 578.299 198.875 576.597C196.67 574.991 195.659 572.819 196.102 570.639L200.097 550.976C200.85 547.267 205.491 544.462 211.132 544.31L222.343 544.006C227.984 543.854 232.776 546.403 233.737 550.066L238.833 569.483C239.399 571.637 238.511 573.859 236.401 575.582C233.949 577.42 230.95 578.421 227.862 578.433V578.433Z" fill="#3F3D56"/>
<path id="Vector_2" d="M350.121 578.433L330.292 578.982C327.28 579.137 324.3 578.299 321.808 576.597C319.655 574.991 318.667 572.819 319.1 570.639L323.002 550.976C323.737 547.267 328.27 544.462 333.78 544.31L344.73 544.006C350.24 543.854 354.92 546.403 355.859 550.066L360.837 569.483C361.389 571.637 360.523 573.859 358.461 575.582C356.066 577.42 353.137 578.421 350.121 578.433V578.433Z" fill="#3F3D56"/>
<path id="Vector_3" d="M157.661 411.646C156.74 411.253 155.982 410.56 155.512 409.681C155.043 408.803 154.89 407.791 155.079 406.815C155.268 405.839 155.788 404.956 156.552 404.312C157.316 403.668 158.279 403.303 159.282 403.275L388.476 397.002C389.054 396.986 389.629 397.083 390.169 397.287C390.709 397.492 391.203 397.8 391.623 398.193C392.043 398.587 392.381 399.059 392.617 399.582C392.853 400.105 392.982 400.669 392.998 401.242V401.242C393.029 402.399 392.596 403.52 391.794 404.361C390.992 405.201 389.886 405.691 388.72 405.725L388.719 405.725L159.525 411.998C158.885 412.017 158.249 411.897 157.661 411.646Z" fill="#3F3D56"/>
<path id="Vector_4" d="M242.467 336.989L177.138 338.768L183.229 556.366L248.558 554.586L242.467 336.989Z" fill="#FFF5F5"/>
<path id="Vector_5" d="M244.301 333L232 366.778L232.011 520.667L247 525L244.301 333Z" fill="#CCCCCC"/>
<path id="Vector_6" d="M209.484 280.004C197.172 280.345 187.778 301.166 188.004 309.291L188.42 324L233 322.797L232.584 308.088C232.351 299.963 221.796 279.681 209.484 280.004Z" fill="#3F3D56"/>
<path id="Vector_7" d="M177.577 428.997C175.281 429.057 173.055 428.22 171.387 426.671C169.718 425.122 168.745 422.986 168.678 420.733L168.003 396.737C167.94 394.483 168.791 392.296 170.37 390.658C171.95 389.021 174.127 388.065 176.423 388.003C178.72 387.941 180.948 388.777 182.616 390.327C184.285 391.876 185.258 394.013 185.322 396.267L185.997 420.264C186.058 422.517 185.205 424.702 183.627 426.339C182.048 427.976 179.873 428.932 177.577 428.997Z" fill="#3F3D56"/>
<path id="Vector_8" d="M194.333 339.006L194 323.103L198.546 323L198.879 338.851L203 569.885L198.453 570" fill="#3F3D56"/>
<path id="Vector_9" d="M250 375.935L173.974 378C166.712 369.291 166.053 332.186 181.207 325.125L187.15 315.2L232.969 313L238.324 323.45C245.862 329.759 249.749 366.631 250 375.935Z" fill="#B0AAAA"/>
<path id="Vector_10" d="M221.506 358.476L202.102 358.998C198.358 359.099 195.175 354.364 195.007 348.444C194.839 342.524 197.75 337.625 201.494 337.524L220.898 337.002C224.642 336.901 227.825 341.636 227.993 347.556C228.161 353.476 225.25 358.375 221.506 358.476Z" fill="#7363FF"/>
<path id="Vector_11" d="M184 466L144.841 493.345L138 555L183.681 539.912L184 466Z" fill="#F0E9E9"/>
<path id="Vector_12" d="M368.575 334.324L303.246 336.103L309.337 553.701L374.666 551.921L368.575 334.324Z" fill="#FFF5F5"/>
<path id="Vector_13" d="M305 334L318.076 367.443L322 521.277L307.23 526L305 334Z" fill="#CCCCCC"/>
<path id="Vector_14" d="M334.484 277.004C322.172 277.353 312.778 298.647 313.004 306.957L313.42 322L358 320.77L357.584 305.726C357.351 297.417 346.796 276.674 334.484 277.004Z" fill="#3F3D56"/>
<path id="Vector_15" d="M347.296 344.007L347 328.104L351.041 328L351.337 343.852L355 574.885L350.958 575" fill="#3F3D56"/>
<path id="Vector_16" d="M375.076 373.935L299.412 376C298.093 368.12 299.799 331.347 306.611 323.125L312.526 313.2L358.126 311L363.455 321.45C376.919 322.534 381.628 358.67 375.076 373.935Z" fill="#BAB6B6"/>
<path id="Vector_17" d="M346.552 359.462L327.151 359.999C323.407 360.102 320.203 354.475 320.009 347.456C319.816 340.437 322.705 334.641 326.448 334.538L345.849 334.001C349.593 333.898 352.797 339.525 352.991 346.544C353.184 353.563 350.295 359.359 346.552 359.462Z" fill="#7363FF"/>
<path id="Vector_18" d="M372.097 450L410.008 479.087L414 541L369 523.862L372.097 450Z" fill="#FDF0F0"/>
<path id="Vector_19" d="M264.006 19.0038C251.968 19.3455 242.783 40.1662 243.004 48.2909L243.41 63L287 61.7971L286.594 47.088C286.365 38.9634 276.045 18.6811 264.006 19.0038Z" fill="#3F3D56"/>
<path id="Vector_20" d="M290.121 577.433L270.292 577.982C267.28 578.137 264.3 577.299 261.808 575.597C259.655 573.991 258.667 571.819 259.1 569.639L263.002 549.976C263.737 546.266 268.271 543.462 273.78 543.31L284.73 543.006C290.24 542.854 294.921 545.403 295.859 549.066L300.837 568.483C301.389 570.636 300.523 572.859 298.461 574.582C296.066 576.42 293.137 577.421 290.121 577.433V577.433Z" fill="#3F3D56"/>
<path id="Vector_21" d="M299.399 113.036L234.07 114.816L246.382 554.664L311.71 552.884L299.399 113.036Z" fill="#FFF7F7" fill-opacity="0.71"/>
<path id="Vector_22" d="M273.296 325.941L273 310.103L277.041 310L277.337 325.787L281 555.885L276.958 556" fill="#3F3D56"/>
<path id="Vector_23" d="M312 153.585L223.482 156C221.939 146.782 223.935 103.766 231.904 94.1482L234.088 82.6677L295.207 81L298.405 92.1891C307.182 99.569 311.708 142.701 312 153.585Z" fill="#BEBCBC"/>
<path id="Vector_24" d="M297.833 82.2575L234.324 83.9976C231.98 84.0617 230.044 82.8406 230.001 81.27C229.995 81.0437 230.028 80.8182 230.099 80.6031L239.964 50.4495C240.386 49.1583 242.068 48.21 244.031 48.1563L286.148 47.0024C288.11 46.9486 289.842 47.8034 290.336 49.0695L301.863 78.637C302.452 80.1493 301.091 81.723 298.821 82.1519C298.495 82.2133 298.165 82.2486 297.833 82.2575V82.2575Z" fill="#9E9494"/>
<path id="Vector_25" d="M240.299 324.292C239.731 324.05 239.193 323.742 238.699 323.374C237.99 322.882 237.405 322.235 236.988 321.484C236.57 320.732 236.332 319.896 236.291 319.04L234.002 236.921C233.908 233.522 237.267 230.662 241.491 230.547L297.879 229.004C302.103 228.887 305.616 231.56 305.711 234.959L308 317.078C308.007 317.936 307.815 318.783 307.44 319.556C307.065 320.329 306.517 321.007 305.837 321.537C304.33 322.753 302.453 323.428 300.511 323.453L244.123 324.995C242.812 325.039 241.507 324.799 240.299 324.292V324.292Z" fill="#3F3D56"/>
<path id="Vector_26" d="M276.666 76.4833L257.849 76.9982C254.218 77.0976 251.147 73.0324 251.005 67.9376C250.863 62.8428 253.703 58.616 257.334 58.5167L276.151 58.0018C279.782 57.9024 282.853 61.9676 282.995 67.0624C283.137 72.1572 280.298 76.384 276.666 76.4833Z" fill="#7363FF"/>
<path id="Vector_27" d="M370.577 423.997C368.281 424.057 366.055 423.22 364.386 421.67C362.718 420.121 361.744 417.985 361.678 415.731L361.003 391.728C360.943 389.475 361.795 387.291 363.374 385.655C364.953 384.019 367.129 383.065 369.424 383.003C371.718 382.941 373.944 383.776 375.613 385.323C377.281 386.871 378.256 389.006 378.322 391.259L378.997 415.261C379.058 417.515 378.205 419.701 376.627 421.338C375.048 422.976 372.872 423.932 370.577 423.997V423.997Z" fill="#3F3D56"/>
</g>
<g id="human">
<path id="Vector_28" d="M519.741 326.238C521.2 326.238 522.599 326.817 523.63 327.848C524.662 328.88 525.241 330.279 525.241 331.737V384.944H630.741C632.2 384.944 633.599 385.523 634.63 386.555C635.662 387.586 636.241 388.985 636.241 390.444C636.241 391.902 635.662 393.301 634.63 394.333C633.599 395.364 632.2 395.944 630.741 395.944H525.241V579.944H514.241V331.737C514.241 330.279 514.821 328.88 515.852 327.848C516.884 326.817 518.283 326.238 519.741 326.238V326.238Z" fill="#E6E6E6"/>
<path id="Vector_29" d="M721.009 562.528H699.009V402.651C717.411 401.331 731.241 395.696 731.241 388.944C731.241 381.212 713.109 374.944 690.741 374.944C668.374 374.944 650.241 381.212 650.241 388.944C650.241 395.761 664.341 401.438 683.009 402.686V562.528H661.009C658.887 562.528 656.852 563.371 655.352 564.871C653.851 566.372 653.009 568.407 653.009 570.528C653.009 572.65 653.851 574.685 655.352 576.185C656.852 577.685 658.887 578.528 661.009 578.528H721.009C723.13 578.528 725.165 577.685 726.665 576.185C728.166 574.685 729.009 572.65 729.009 570.528C729.009 568.407 728.166 566.372 726.665 564.871C725.165 563.371 723.13 562.528 721.009 562.528Z" fill="#E6E6E6"/>
<path id="Vector_30" d="M676.847 481.363L669.62 489.238L635.806 465.112L646.471 453.489L676.847 481.363Z" fill="#A0616A"/>
<path id="Vector_31" d="M658.368 502.148C658.439 503.909 658.859 505.639 659.603 507.236C660.348 508.834 661.402 510.268 662.704 511.456L663.022 511.752L672.5 501.423L686.321 486.359L676.118 476.993L674.275 479.005L674.083 479.212L664.901 483.555L662.956 484.48L662.623 484.635L661.89 492.5V492.508C660.693 493.801 659.765 495.319 659.161 496.974C658.556 498.629 658.287 500.388 658.368 502.148V502.148Z" fill="#2F2E41"/>
<path id="Vector_32" d="M714.287 559.924L704.06 563.031L687.21 525.063L702.304 520.478L714.287 559.924Z" fill="#A0616A"/>
<path id="Vector_33" d="M686.801 578.643L686.927 579.064L719.903 569.047L715.878 555.796L713.274 556.587L713 556.669L700.74 555.544L700.378 555.515L695.739 561.914C692.336 562.948 689.482 565.291 687.806 568.428C686.13 571.565 685.769 575.239 686.801 578.643H686.801Z" fill="#2F2E41"/>
<path id="Path 17" d="M629.957 361.128C629.957 361.128 564.663 424.17 605.941 443.684H618.699C621.472 434.669 625.735 426.183 631.31 418.576C632.516 416.999 637.031 417.319 638.285 415.782C645.942 406.395 654.243 398.334 659.977 398.654L658.605 442.212L656.386 457.749C655.22 465.781 688.113 535.91 688.113 535.91L708.787 527.785C708.787 527.785 687.247 470.023 686.995 461.696L704.256 370.134L629.957 361.128Z" fill="#2F2E41"/>
<path id="Vector_34" d="M624.512 364.237C624.845 364.712 625.28 365.106 625.785 365.391C626.617 365.862 627.518 366.196 628.456 366.383C643.157 369.72 691.181 376.637 703.648 373.338C705.18 372.938 706.178 372.376 706.504 371.636C707.547 369.298 707.414 359.421 706.8 347.494C706.689 345.26 704.225 342.84 704.077 340.502C703.974 338.749 706.186 337.099 706.067 335.316C705.254 323.256 704.203 310.967 703.5 303.198C703.056 298.204 702.753 295.082 702.753 295.082L710.336 247.265L709.981 246.68L709.582 246.48L685.129 234.376L683.798 230.973C683.412 229.993 682.741 229.151 681.872 228.556C681.003 227.962 679.975 227.641 678.922 227.636L662.815 227.57C661.979 227.565 661.155 227.76 660.41 228.138C659.664 228.517 659.021 229.067 658.531 229.745L654.166 235.789L625.311 254.286L625.422 254.626L638.962 295.829L639.028 299.04V299.048L639.531 324.869L638.133 328.369L639.709 334.11C639.709 334.11 638.984 340.82 635.1 345.807C631.578 350.335 627.094 355.056 625.067 358.888V358.895C623.942 361.012 623.565 362.846 624.512 364.237Z" fill="#7363FF"/>
<path id="Path 18" d="M602.806 439.939L606.296 444.349C606.296 444.349 638.393 466.805 639.496 468.903L644.568 473.703L656.842 460.583L650.459 452.583C645.351 446.18 638.752 441.128 631.238 437.867V437.867L621.456 429.188L602.806 439.939Z" fill="#2F2E41"/>
<path id="Vector_35" d="M718.425 379.131L712.58 322.553L711.037 299.268L727.397 296.31C727.397 296.31 726.749 312.96 728.892 322.354C731.007 331.623 729.173 377.889 729.042 379.126C730.244 380.2 731.091 381.614 731.471 383.181C731.852 384.747 731.748 386.392 731.173 387.898C730.598 389.403 729.58 390.699 728.253 391.614C726.926 392.528 725.352 393.019 723.74 393.019C722.128 393.02 720.554 392.532 719.226 391.618C717.898 390.705 716.879 389.41 716.302 387.905C715.726 386.399 715.621 384.755 716 383.188C716.379 381.621 717.224 380.207 718.425 379.131V379.131Z" fill="#A0616A"/>
<path id="Vector_36" d="M698.943 293.447L703.5 303.198L705.091 306.594L709.375 329.027L711.513 331.299L713.355 338.631L714.221 338.453L729.832 335.22L734.382 334.28C735.408 332.571 735.812 330.561 735.526 328.589C735.24 326.616 734.282 324.803 732.814 323.456C732.503 323.175 732.244 322.901 732.251 322.642C732.51 307.038 731.556 278.546 722.936 266.819C720.199 263.098 718.556 259.391 716.167 256.802C716.159 256.794 716.159 256.787 716.152 256.787L710.336 247.265L709.981 246.68L709.582 246.48L698.943 293.447Z" fill="#7363FF"/>
<path id="Ellipse 5" d="M672.128 223.562C683.964 223.562 693.559 213.967 693.559 202.131C693.559 190.295 683.964 180.7 672.128 180.7C660.292 180.7 650.697 190.295 650.697 202.131C650.697 213.967 660.292 223.562 672.128 223.562Z" fill="#A0616A"/>
<path id="Vector_37" d="M697.575 197.52C698.203 193.918 698.692 189.25 696.894 185.099C695.375 181.607 691.574 178.332 687.349 178.774C687.55 177.985 687.527 177.157 687.285 176.38C687.043 175.603 686.59 174.909 685.977 174.375C684.601 173.295 682.998 172.541 681.288 172.17C677.317 171.003 673.204 169.793 668.957 169.771C664.19 169.745 659.967 171.378 657.377 174.257L657.313 174.35L656.537 176.204C656.433 176.452 656.277 176.676 656.078 176.858C655.88 177.041 655.645 177.178 655.388 177.261C655.131 177.346 654.859 177.373 654.59 177.34C654.322 177.307 654.064 177.215 653.835 177.071C653.584 176.916 653.296 176.83 653.002 176.82C652.707 176.811 652.415 176.878 652.154 177.016C651.893 177.154 651.673 177.358 651.515 177.607C651.358 177.856 651.267 178.142 651.254 178.437L651.213 179.228L650.101 178.784C649.822 178.672 649.518 178.635 649.22 178.679C648.923 178.723 648.642 178.846 648.408 179.035C648.174 179.223 647.994 179.471 647.887 179.752C647.781 180.034 647.751 180.338 647.802 180.635L647.95 181.576C647.711 181.532 647.465 181.538 647.228 181.591C646.991 181.644 646.767 181.745 646.57 181.887C646.287 182.094 646.078 182.387 645.972 182.721C645.866 183.055 645.869 183.414 645.981 183.747C646.844 186.208 648.318 188.41 650.265 190.146C651.138 190.936 652.117 191.602 653.173 192.124C653.392 192.234 653.621 192.339 653.858 192.438C662.398 196.1 671.536 198.17 680.821 198.546C679.943 200.221 679.376 202.041 679.147 203.918C679.02 204.983 679.187 206.063 679.63 207.04C680.073 208.017 680.776 208.854 681.661 209.46C682.045 209.679 682.448 209.864 682.865 210.011C683.263 210.158 683.649 210.337 684.019 210.546C684.561 210.874 685.007 211.339 685.312 211.895C685.617 212.45 685.769 213.077 685.754 213.71C685.739 214.344 685.557 214.962 685.226 215.503C684.896 216.043 684.428 216.487 683.871 216.789C683.871 216.789 685.466 218.736 685.721 218.703C686.737 218.472 687.655 217.929 688.346 217.15C692.987 212.643 696.093 206.043 697.575 197.52Z" fill="#2F2E41"/>
<path id="Vector_38" d="M603.602 368.423C596.187 368.275 556.362 367.132 549.831 367.413C549.462 366.12 537.081 381.986 536.78 382.084C536.58 382.296 536.433 382.553 536.353 382.834C536.274 383.114 536.263 383.41 536.323 383.696C536.382 383.981 536.51 384.248 536.695 384.474C536.88 384.7 537.117 384.877 537.385 384.992C538.113 385.434 602.317 384.246 603.095 384.401C603.431 384.396 603.759 384.295 604.041 384.112C604.323 383.928 604.548 383.668 604.688 383.363L605.117 382.401C605.162 380.757 605.7 372.353 605.217 370.917C605.336 370.647 605.385 370.352 605.362 370.058C605.338 369.765 605.242 369.481 605.082 369.234C604.922 368.987 604.702 368.783 604.444 368.642C604.186 368.5 603.896 368.425 603.602 368.423V368.423Z" fill="#E6E6E6"/>
<path id="Vector_39" opacity="0.17" d="M605.117 382.4C604.741 383.305 604.259 384.443 603.094 384.401L538.063 385.131C537.755 385.128 537.454 385.045 537.187 384.891C536.921 384.738 536.698 384.518 536.541 384.254C536.384 383.989 536.297 383.689 536.29 383.382C536.282 383.074 536.354 382.77 536.498 382.498L605.117 382.4Z" fill="black"/>
<path id="Vector_40" d="M550.135 367.218C549.435 366.008 532.049 279.98 530.598 279.261L518.727 264.74L517.666 263.942C516.191 263.131 512.652 263.679 512.971 265.933C515.76 279.303 533.696 355.451 534.089 367.323L536.249 382.447C536.287 382.705 536.379 382.951 536.519 383.171C536.658 383.39 536.842 383.578 537.059 383.722C537.276 383.867 537.52 383.964 537.777 384.008C538.033 384.051 538.296 384.041 538.548 383.977C539.167 383.91 539.758 383.684 540.263 383.319C540.767 382.954 541.168 382.465 541.426 381.898C541.588 381.364 550.948 367.528 550.135 367.218Z" fill="#E6E6E6"/>
<path id="Vector_41" opacity="0.17" d="M518.725 264.74L541.428 381.901C540.669 383.823 537.116 385.169 536.289 382.648C536.274 382.645 512.997 266.005 512.974 265.935C512.726 263.128 517.364 263.039 518.725 264.74Z" fill="black"/>
<path id="Vector_42" d="M519.409 269.531L530.939 285.603L543.881 347.068L537.865 352.316L519.409 269.531Z" fill="#7363FF"/>
<path id="Vector_43" d="M596.159 376.71L599.349 376.84C599.399 375.906 599.553 374.98 599.809 374.08C600.289 371.8 600.719 369.09 598.729 369.1C597.379 368.97 596.919 370.68 596.679 372.54C596.617 373.942 596.443 375.336 596.159 376.71Z" fill="#2F2E41"/>
<path id="Vector_44" d="M577.859 372.42L580.009 372.5L581.049 372.54C581.029 371.4 581.559 369.05 580.269 368.47C580.064 368.382 579.842 368.338 579.619 368.34C578.409 368.27 578.049 369.19 577.939 370.25C577.869 370.89 577.899 371.57 577.879 372.1C577.879 372.21 577.869 372.32 577.859 372.42Z" fill="#2F2E41"/>
<path id="Vector_45" d="M571.489 372.16L573.649 372.25L574.679 372.29C574.659 370.98 575.349 368.12 573.249 368.08C571.309 367.97 571.559 370.44 571.509 371.84C571.509 371.95 571.499 372.06 571.489 372.16Z" fill="#2F2E41"/>
<path id="Vector_46" d="M565.119 371.91L567.269 371.99L568.309 372.03C568.289 370.73 568.979 367.87 566.879 367.83C564.939 367.71 565.189 370.18 565.139 371.59C565.139 371.7 565.129 371.81 565.119 371.91Z" fill="#2F2E41"/>
<path id="Vector_47" d="M558.749 371.65L560.909 371.74L561.939 371.78C561.919 370.47 562.609 367.62 560.509 367.57C558.569 367.46 558.819 369.93 558.769 371.33C558.769 371.44 558.759 371.55 558.749 371.65Z" fill="#2F2E41"/>
<path id="Vector_48" d="M552.379 371.4L554.529 371.48L555.569 371.52C555.549 370.32 556.129 367.81 554.589 367.38H554.579C554.436 367.338 554.288 367.318 554.139 367.32C553.957 367.304 553.774 367.321 553.599 367.37H553.589C552.249 367.72 552.439 369.82 552.399 371.08C552.399 371.19 552.389 371.3 552.379 371.4Z" fill="#2F2E41"/>
<path id="Vector_49" d="M589.729 370.72L592.919 370.85C592.919 370.73 592.919 370.6 592.929 370.45C593.008 369.69 593.021 368.923 592.969 368.16C592.859 367.32 592.499 366.66 591.489 366.64C590.459 366.58 590.049 367.24 589.889 368.09C589.852 368.235 589.825 368.382 589.809 368.53V368.54C589.729 369.32 589.779 370.16 589.729 370.72Z" fill="#2F2E41"/>
<path id="Vector_50" d="M583.359 370.46L586.549 370.59C586.617 369.732 586.637 368.871 586.609 368.01C586.519 367.13 586.169 366.41 585.119 366.39C584.059 366.32 583.649 367.04 583.489 367.93C583.339 368.79 583.419 369.82 583.359 370.46Z" fill="#2F2E41"/>
<path id="Vector_51" d="M576.989 370.21L577.939 370.25L580.179 370.34C580.169 369.86 580.259 369.16 580.269 368.47C580.277 368.263 580.271 368.056 580.249 367.85C580.169 366.92 579.839 366.15 578.749 366.13C577.639 366.07 577.249 366.84 577.109 367.78C576.969 368.62 577.049 369.59 576.989 370.21Z" fill="#2F2E41"/>
<path id="Vector_52" d="M589.789 376.46L592.979 376.58C592.969 375.28 593.649 372.42 591.549 372.38C589.449 372.25 589.909 375.15 589.789 376.46Z" fill="#2F2E41"/>
<path id="Vector_53" d="M583.419 376.2L586.609 376.33C586.599 375.02 587.279 372.16 585.179 372.12C583.079 372 583.539 374.9 583.419 376.2Z" fill="#2F2E41"/>
<path id="Vector_54" d="M577.049 375.95L580.239 376.07C580.229 375.14 580.579 373.42 580.009 372.5C579.884 372.297 579.707 372.13 579.496 372.019C579.285 371.908 579.047 371.857 578.809 371.87C578.481 371.836 578.152 371.917 577.879 372.1C576.859 372.77 577.149 374.89 577.049 375.95Z" fill="#2F2E41"/>
<path id="Vector_55" d="M570.679 375.69L573.869 375.82C573.859 374.89 574.199 373.18 573.649 372.25C573.525 372.043 573.346 371.875 573.133 371.762C572.92 371.649 572.68 371.597 572.439 371.61C572.111 371.574 571.782 371.656 571.509 371.84C570.489 372.53 570.779 374.64 570.679 375.69Z" fill="#2F2E41"/>
<path id="Vector_56" d="M564.309 375.44L567.499 375.56C567.489 374.63 567.839 372.91 567.269 371.99C567.144 371.787 566.967 371.62 566.756 371.509C566.545 371.399 566.307 371.347 566.069 371.36C565.741 371.326 565.412 371.407 565.139 371.59C564.119 372.26 564.409 374.38 564.309 375.44Z" fill="#2F2E41"/>
<path id="Vector_57" d="M557.939 375.18L561.129 375.31C561.119 374.38 561.459 372.67 560.909 371.74C560.785 371.533 560.607 371.363 560.394 371.25C560.18 371.137 559.94 371.085 559.699 371.1C559.371 371.064 559.042 371.146 558.769 371.33C557.749 372.02 558.039 374.13 557.939 375.18Z" fill="#2F2E41"/>
<path id="Vector_58" d="M551.569 374.93L554.759 375.05C554.749 374.12 555.089 372.41 554.529 371.48C554.405 371.276 554.228 371.109 554.017 370.998C553.805 370.887 553.567 370.836 553.329 370.85C553.001 370.816 552.672 370.897 552.399 371.08C551.379 371.76 551.669 373.87 551.569 374.93Z" fill="#2F2E41"/>
<path id="Vector_59" d="M587.595 365.686L611.908 314.266L621.101 292.816L606.653 284.589C606.653 284.589 601.732 300.509 596.589 308.657C591.514 316.697 577.87 360.943 577.583 362.153C576.092 362.768 574.824 363.82 573.944 365.171C573.065 366.521 572.617 368.107 572.658 369.719C572.7 371.33 573.23 372.89 574.178 374.194C575.125 375.498 576.447 376.483 577.967 377.019C579.487 377.555 581.134 377.618 582.69 377.198C584.246 376.777 585.638 375.895 586.681 374.667C587.725 373.438 588.371 371.922 588.534 370.318C588.697 368.715 588.37 367.1 587.595 365.686H587.595Z" fill="#A0616A"/>
<path id="Vector_60" d="M587.447 318.079L605.834 329.172L610.004 322.869L612.782 321.436L624.276 301.699L634.439 291.345L647.866 248.426L630.396 251.047L630.373 251.055C627.261 252.705 624.477 255.656 620.66 258.257C608.634 266.453 598.265 293.009 593.325 307.816C593.244 308.059 592.911 308.228 592.524 308.394C590.692 309.177 589.187 310.568 588.262 312.333C587.337 314.097 587.049 316.127 587.447 318.079L587.447 318.079Z" fill="#7363FF"/>
</g>
</g>
</svg>
