<svg width="693" height="616" viewBox="0 0 693 616" fill="none" xmlns="http://www.w3.org/2000/svg">
<g id="undraw_to_the_moon_re_q21i 1">
<g id="stars">
<path id="Vector" d="M116 299C118.209 299 120 297.209 120 295C120 292.791 118.209 291 116 291C113.791 291 112 292.791 112 295C112 297.209 113.791 299 116 299Z" fill="white"/>
<path id="Vector_2" d="M484 492C486.209 492 488 490.209 488 488C488 485.791 486.209 484 484 484C481.791 484 480 485.791 480 488C480 490.209 481.791 492 484 492Z" fill="white"/>
<path id="Vector_3" d="M552 82C554.209 82 556 80.2091 556 78C556 75.7909 554.209 74 552 74C549.791 74 548 75.7909 548 78C548 80.2091 549.791 82 552 82Z" fill="white"/>
<path id="Vector_4" d="M174 153C176.209 153 178 151.209 178 149C178 146.791 176.209 145 174 145C171.791 145 170 146.791 170 149C170 151.209 171.791 153 174 153Z" fill="white"/>
<path id="Vector_5" d="M468 256C470.209 256 472 254.209 472 252C472 249.791 470.209 248 468 248C465.791 248 464 249.791 464 252C464 254.209 465.791 256 468 256Z" fill="white"/>
<path id="Vector_6" d="M305 531C307.209 531 309 529.209 309 527C309 524.791 307.209 523 305 523C302.791 523 301 524.791 301 527C301 529.209 302.791 531 305 531Z" fill="white"/>
<path id="Vector_7" d="M606 484C608.209 484 610 482.209 610 480C610 477.791 608.209 476 606 476C603.791 476 602 477.791 602 480C602 482.209 603.791 484 606 484Z" fill="white"/>
<path id="Vector_8" d="M648 535C650.209 535 652 533.209 652 531C652 528.791 650.209 527 648 527C645.791 527 644 528.791 644 531C644 533.209 645.791 535 648 535Z" fill="white"/>
<path id="Vector_9" d="M630 194C632.209 194 634 192.209 634 190C634 187.791 632.209 186 630 186C627.791 186 626 187.791 626 190C626 192.209 627.791 194 630 194Z" fill="white"/>
<path id="Vector_10" d="M526 230C528.209 230 530 228.209 530 226C530 223.791 528.209 222 526 222C523.791 222 522 223.791 522 226C522 228.209 523.791 230 526 230Z" fill="white"/>
<path id="Vector_11" d="M84 183C86.2091 183 88 181.209 88 179C88 176.791 86.2091 175 84 175C81.7909 175 80 176.791 80 179C80 181.209 81.7909 183 84 183Z" fill="white"/>
<path id="Vector_12" d="M446 425C448.209 425 450 423.209 450 421C450 418.791 448.209 417 446 417C443.791 417 442 418.791 442 421C442 423.209 443.791 425 446 425Z" fill="white"/>
<path id="Vector_13" d="M450 140C452.209 140 454 138.209 454 136C454 133.791 452.209 132 450 132C447.791 132 446 133.791 446 136C446 138.209 447.791 140 450 140Z" fill="white"/>
<path id="Vector_14" d="M254 440C256.209 440 258 438.209 258 436C258 433.791 256.209 432 254 432C251.791 432 250 433.791 250 436C250 438.209 251.791 440 254 440Z" fill="white"/>
<path id="Vector_15" d="M120 412C122.209 412 124 410.209 124 408C124 405.791 122.209 404 120 404C117.791 404 116 405.791 116 408C116 410.209 117.791 412 120 412Z" fill="white"/>
<path id="Vector_16" d="M174 526C176.209 526 178 524.209 178 522C178 519.791 176.209 518 174 518C171.791 518 170 519.791 170 522C170 524.209 171.791 526 174 526Z" fill="white"/>
<path id="Vector_17" d="M37 492C39.2091 492 41 490.209 41 488C41 485.791 39.2091 484 37 484C34.7909 484 33 485.791 33 488C33 490.209 34.7909 492 37 492Z" fill="white"/>
<path id="Vector_18" d="M556 411C558.209 411 560 409.209 560 407C560 404.791 558.209 403 556 403C553.791 403 552 404.791 552 407C552 409.209 553.791 411 556 411Z" fill="white"/>
<path id="Vector_19" d="M598 268C600.209 268 602 266.209 602 264C602 261.791 600.209 260 598 260C595.791 260 594 261.791 594 264C594 266.209 595.791 268 598 268Z" fill="white"/>
<path id="Vector_20" d="M158 68C160.209 68 162 66.2091 162 64C162 61.7909 160.209 60 158 60C155.791 60 154 61.7909 154 64C154 66.2091 155.791 68 158 68Z" fill="white"/>
<path id="Vector_21" d="M297 61C299.209 61 301 59.2091 301 57C301 54.7909 299.209 53 297 53C294.791 53 293 54.7909 293 57C293 59.2091 294.791 61 297 61Z" fill="white"/>
<path id="Vector_22" d="M508 105C510.209 105 512 103.209 512 101C512 98.7909 510.209 97 508 97C505.791 97 504 98.7909 504 101C504 103.209 505.791 105 508 105Z" fill="white"/>
<path id="Vector_23" d="M8.20078 101.532C8.40143 99.7363 7.55143 98.1674 6.30225 98.0279C5.05308 97.8883 3.87776 99.2308 3.67712 101.027C3.47647 102.822 4.32647 104.391 5.57565 104.531C6.82482 104.67 8.00014 103.328 8.20078 101.532Z" fill="#E6E6E6"/>
<path id="Vector_24" d="M10.9837 122.74C11.1843 120.944 10.3343 119.375 9.08516 119.236C7.83599 119.096 6.66067 120.439 6.46003 122.234C6.25938 124.03 7.10938 125.599 8.35856 125.738C9.60774 125.878 10.783 124.536 10.9837 122.74Z" fill="#3F3D56"/>
<path id="Vector_25" d="M504.961 291.866C505.449 289.938 503.599 287.806 500.827 287.103C498.056 286.401 495.413 287.395 494.925 289.323C494.436 291.25 496.287 293.383 499.058 294.085C501.829 294.787 504.472 293.794 504.961 291.866Z" fill="white"/>
<path id="Vector_26" d="M471.117 291.648C471.605 289.72 469.755 287.588 466.983 286.885C464.212 286.183 461.569 287.176 461.081 289.104C460.592 291.032 462.443 293.164 465.214 293.867C467.986 294.569 470.628 293.576 471.117 291.648Z" fill="#3F3D56"/>
<path id="Vector_27" d="M511.311 319.944C511.8 318.016 509.95 315.884 507.178 315.182C504.407 314.48 501.764 315.473 501.276 317.401C500.787 319.329 502.637 321.461 505.409 322.163C508.18 322.866 510.823 321.872 511.311 319.944Z" fill="#FF6584"/>
<path id="Vector_28" d="M519.201 330.532C519.401 328.736 518.551 327.167 517.302 327.028C516.053 326.888 514.878 328.231 514.677 330.026C514.476 331.822 515.326 333.391 516.576 333.531C517.825 333.67 519 332.328 519.201 330.532Z" fill="#E6E6E6"/>
<path id="Vector_29" d="M521.984 351.74C522.184 349.944 521.334 348.375 520.085 348.236C518.836 348.096 517.661 349.439 517.46 351.234C517.259 353.03 518.109 354.599 519.359 354.738C520.608 354.878 521.783 353.536 521.984 351.74Z" fill="#3F3D56"/>
<path id="Vector_30" d="M487.383 311.324C487.584 309.528 486.734 307.959 485.485 307.82C484.236 307.68 483.06 309.023 482.86 310.818C482.659 312.614 483.509 314.183 484.758 314.323C486.007 314.462 487.183 313.12 487.383 311.324Z" fill="#E6E6E6"/>
<path id="Vector_31" d="M504.415 304.925C504.616 303.13 503.766 301.561 502.517 301.421C501.267 301.282 500.092 302.624 499.891 304.42C499.691 306.216 500.541 307.785 501.79 307.924C503.039 308.064 504.214 306.721 504.415 304.925Z" fill="#FF6584"/>
<path id="Vector_32" d="M483.433 287.639C483.633 285.843 482.783 284.274 481.534 284.135C480.285 283.995 479.11 285.338 478.909 287.133C478.708 288.929 479.558 290.498 480.808 290.638C482.057 290.777 483.232 289.435 483.433 287.639Z" fill="#3F3D56"/>
<path id="Vector_33" d="M49.9605 54.8659C50.4491 52.9379 48.5985 50.8057 45.8272 50.1034C43.0558 49.4011 40.4131 50.3946 39.9245 52.3225C39.436 54.2504 41.2865 56.3826 44.0579 57.085C46.8292 57.7873 49.4719 56.7938 49.9605 54.8659Z" fill="white"/>
<path id="Vector_34" d="M16.1169 54.6477C16.6054 52.7198 14.7549 50.5875 11.9835 49.8852C9.21217 49.1829 6.56948 50.1764 6.0809 52.1043C5.59233 54.0322 7.44288 56.1645 10.2142 56.8668C12.9856 57.5691 15.6283 56.5756 16.1169 54.6477Z" fill="#3F3D56"/>
<path id="Vector_35" d="M56.3115 82.9443C56.8 81.0164 54.9495 78.8842 52.1781 78.1819C49.4068 77.4795 46.7641 78.4731 46.2755 80.401C45.7869 82.3289 47.6375 84.4611 50.4088 85.1634C53.1802 85.8657 55.8229 84.8722 56.3115 82.9443Z" fill="#FF6584"/>
<path id="Vector_36" d="M64.2008 93.532C64.4014 91.7363 63.5514 90.1674 62.3023 90.0279C61.0531 89.8883 59.8778 91.2308 59.6771 93.0265C59.4765 94.8222 60.3265 96.391 61.5756 96.5306C62.8248 96.6702 64.0001 95.3276 64.2008 93.532Z" fill="#E6E6E6"/>
<path id="Vector_37" d="M66.9837 114.74C67.1843 112.944 66.3343 111.375 65.0852 111.236C63.836 111.096 62.6607 112.439 62.46 114.234C62.2594 116.03 63.1094 117.599 64.3586 117.738C65.6077 117.878 66.783 116.536 66.9837 114.74Z" fill="#3F3D56"/>
<path id="Vector_38" d="M32.3834 74.3239C32.584 72.5282 31.734 70.9594 30.4849 70.8198C29.2357 70.6802 28.0604 72.0228 27.8597 73.8184C27.6591 75.6141 28.5091 77.183 29.7583 77.3225C31.0074 77.4621 32.1828 76.1196 32.3834 74.3239Z" fill="#E6E6E6"/>
<path id="Vector_39" d="M49.4151 67.9254C49.6158 66.1298 48.7658 64.5609 47.5166 64.4213C46.2674 64.2818 45.0921 65.6243 44.8914 67.42C44.6908 69.2157 45.5408 70.7845 46.79 70.9241C48.0391 71.0637 49.2145 69.7211 49.4151 67.9254Z" fill="#FF6584"/>
<path id="Vector_40" d="M28.4328 50.6389C28.6335 48.8432 27.7835 47.2744 26.5343 47.1348C25.2851 46.9952 24.1098 48.3378 23.9091 50.1335C23.7085 51.9291 24.5585 53.498 25.8077 53.6376C27.0568 53.7771 28.2322 52.4346 28.4328 50.6389Z" fill="#3F3D56"/>
<path id="Vector_41" d="M158.373 198.095C160.582 198.095 162.373 196.304 162.373 194.095C162.373 191.886 160.582 190.095 158.373 190.095C156.164 190.095 154.373 191.886 154.373 194.095C154.373 196.304 156.164 198.095 158.373 198.095Z" fill="white"/>
<path id="Vector_42" d="M60.3728 236.095C61.4774 236.095 62.3728 235.2 62.3728 234.095C62.3728 232.991 61.4774 232.095 60.3728 232.095C59.2682 232.095 58.3728 232.991 58.3728 234.095C58.3728 235.2 59.2682 236.095 60.3728 236.095Z" fill="white"/>
<path id="Vector_43" d="M457.373 385.095C458.477 385.095 459.373 384.2 459.373 383.095C459.373 381.991 458.477 381.095 457.373 381.095C456.268 381.095 455.373 381.991 455.373 383.095C455.373 384.2 456.268 385.095 457.373 385.095Z" fill="white"/>
<path id="Vector_44" d="M199.373 293.095C200.477 293.095 201.373 292.2 201.373 291.095C201.373 289.991 200.477 289.095 199.373 289.095C198.268 289.095 197.373 289.991 197.373 291.095C197.373 292.2 198.268 293.095 199.373 293.095Z" fill="white"/>
<path id="Vector_45" d="M235.373 84.0953C236.477 84.0953 237.373 83.1999 237.373 82.0953C237.373 80.9908 236.477 80.0953 235.373 80.0953C234.268 80.0953 233.373 80.9908 233.373 82.0953C233.373 83.1999 234.268 84.0953 235.373 84.0953Z" fill="white"/>
<path id="Vector_46" d="M562.373 161.095C563.477 161.095 564.373 160.2 564.373 159.095C564.373 157.991 563.477 157.095 562.373 157.095C561.268 157.095 560.373 157.991 560.373 159.095C560.373 160.2 561.268 161.095 562.373 161.095Z" fill="white"/>
<path id="Vector_47" d="M97.3728 57.0953C98.4774 57.0953 99.3728 56.1999 99.3728 55.0953C99.3728 53.9908 98.4774 53.0953 97.3728 53.0953C96.2682 53.0953 95.3728 53.9908 95.3728 55.0953C95.3728 56.1999 96.2682 57.0953 97.3728 57.0953Z" fill="white"/>
<path id="Vector_48" d="M461.373 47.0953C463.582 47.0953 465.373 45.3045 465.373 43.0953C465.373 40.8862 463.582 39.0953 461.373 39.0953C459.164 39.0953 457.373 40.8862 457.373 43.0953C457.373 45.3045 459.164 47.0953 461.373 47.0953Z" fill="white"/>
</g>
<g id="human">
<path id="Vector_49" d="M360.373 134.095C382.464 134.095 400.373 116.187 400.373 94.0953C400.373 72.0039 382.464 54.0953 360.373 54.0953C338.281 54.0953 320.373 72.0039 320.373 94.0953C320.373 116.187 338.281 134.095 360.373 134.095Z" fill="#F2F2F2"/>
<path id="Vector_50" d="M354.373 137.095C376.464 137.095 394.373 119.187 394.373 97.0953C394.373 75.0039 376.464 57.0953 354.373 57.0953C332.281 57.0953 314.373 75.0039 314.373 97.0953C314.373 119.187 332.281 137.095 354.373 137.095Z" fill="#F2F2F2"/>
<path id="Vector_51" d="M398.372 535.04L360.88 535.039V534.565C360.88 530.695 362.418 526.983 365.154 524.247C367.891 521.51 371.603 519.972 375.473 519.972H375.474L382.322 514.777L395.1 519.973L398.373 519.973L398.372 535.04Z" fill="#F2F2F2"/>
<path id="Vector_52" d="M380.919 514.791L348.886 534.274L348.64 533.869C346.629 530.562 346.014 526.592 346.93 522.832C347.846 519.071 350.218 515.829 353.524 513.817L353.525 513.817L356.676 505.819L370.293 503.618L373.089 501.918L380.919 514.791Z" fill="#F2F2F2"/>
<path id="Vector_53" d="M402.943 408.565C402.773 409.765 402.523 413.845 402.233 419.785C400.823 448.585 398.373 521.095 398.373 521.095L383.103 516.345C383.103 516.345 364.943 461.565 367.943 431.565L365.783 421.125L362.083 403.285V403.275L350.813 348.945C350.813 348.945 348.343 363.665 348.143 367.115C347.943 370.565 345.943 371.565 344.943 371.565C339.933 371.565 341.473 370.675 342.203 375.625C342.733 379.185 338.393 399.595 335.913 410.755C334.953 415.095 334.273 418.035 334.273 418.035L338.513 427.175L373.663 502.975L360.373 510.095L307.353 431.515L302.123 423.765L301.003 415.075L292.183 346.705C292.183 346.705 289.433 338.975 292.183 338.775C294.943 338.565 296.503 339.435 295.723 336.505C294.943 333.565 310.943 284.565 310.943 284.565L393.943 302.565C393.943 302.565 402.123 318.825 398.943 326.565C395.753 334.305 401.553 394.245 398.243 396.906C394.943 399.565 392.813 397.435 397.373 402.005C398.07 402.733 398.894 403.329 399.803 403.765C402.623 405.045 403.743 402.965 402.943 408.565Z" fill="#F2F2F2"/>
<path id="Vector_54" d="M354.113 122.016C366.846 122.016 377.168 111.693 377.168 98.9599C377.168 86.2266 366.846 75.9042 354.113 75.9042C341.379 75.9042 331.057 86.2266 331.057 98.9599C331.057 111.693 341.379 122.016 354.113 122.016Z" fill="#A0616A"/>
<path id="Vector_55" d="M372.08 118.816L362.94 120.566C362.94 120.566 371.44 106.846 370.94 100.566C370.44 94.2862 363.6 92.0362 363.6 92.0362C363.6 92.0362 359.81 92.8562 355.82 93.3162C355.342 91.9707 354.721 90.6801 353.97 89.4662C353.822 91.0333 353.128 92.4985 352.01 93.6062C350.547 93.7318 349.075 93.5618 347.68 93.1062C346.1 92.3862 346.13 91.1362 346.65 89.9662C341.5 90.3912 336.474 91.7714 331.83 94.0362C331.6 90.9661 331.717 87.8799 332.18 84.8362C332.4 84.7762 332.62 84.7063 332.84 84.6362C334.202 84.205 335.516 83.6319 336.76 82.9262C335.376 82.7426 334.083 82.1347 333.06 81.1862C333.9 78.7262 335.24 76.5962 337.35 75.5562C339.385 74.5606 341.611 74.0141 343.877 73.9537C346.142 73.8933 348.394 74.3205 350.48 75.2062C350.48 75.2062 345.59 71.6362 347.39 70.1762C347.51 70.2962 347.63 70.4062 347.76 70.5162C347.93 70.6562 348.12 70.8062 348.3 70.9462C349.41 71.8462 351.07 70.5762 351.29 69.2162C351.313 69.0445 351.347 68.8742 351.39 68.7062C351.42 68.5662 351.46 68.4262 351.5 68.2962C351.534 68.1808 351.574 68.0673 351.62 67.9562C354.95 67.1562 365.02 70.4062 368.89 77.5662C368.89 77.5662 395.94 90.5662 372.08 118.816Z" fill="#3F3D56"/>
<path id="Vector_56" d="M401.94 282.566C395.94 276.626 397.05 249.556 397.05 249.556C397.05 249.556 403.02 158.656 394.94 152.566C389.353 148.534 383.408 145.023 377.18 142.076C376.82 141.916 376.63 141.826 376.63 141.826L371.47 127.276L339.68 125.626L334.13 136.406C334.13 136.406 333.26 136.466 331.9 136.656C326.82 137.356 314.88 139.836 315.94 147.566C317.28 157.366 307.82 217.556 304.94 220.566C302.06 223.576 302.82 234.576 309.94 241.566C317.06 248.556 311.94 267.566 306.94 275.566C303.939 280.463 302.554 286.179 302.98 291.906C302.98 291.906 306.94 313.566 316.94 306.566C320.75 303.896 326.16 303.556 332.67 304.046C332.733 304.051 332.802 304.059 332.866 304.064L332.67 305.046C341.71 305.716 352.88 307.986 364.83 307.856L364.476 306.852C364.595 306.851 364.711 306.858 364.83 306.856C366.85 306.836 368.88 306.746 370.94 306.566C388.76 305.016 396.63 309.916 398.94 304.566C401.25 299.216 407.94 288.506 401.94 282.566Z" fill="#F2F2F2"/>
<path id="Vector_57" opacity="0.3" d="M354.373 127.095C370.941 127.095 384.373 113.664 384.373 97.0953C384.373 80.5268 370.941 67.0953 354.373 67.0953C337.804 67.0953 324.373 80.5268 324.373 97.0953C324.373 113.664 337.804 127.095 354.373 127.095Z" fill="#6C63FF"/>
<path id="Vector_58" d="M381.373 146.095C360.494 154.205 341.722 155.603 326.373 146.095V128.095C344.45 138.942 362.79 138.645 381.373 128.095V146.095Z" fill="#3F3D56"/>
<path id="Vector_59" d="M397.373 261.095C365.105 269.205 336.094 270.603 312.373 261.095V243.095C340.31 253.942 368.654 253.645 397.373 243.095V261.095Z" fill="#3F3D56"/>
<path id="Vector_60" d="M402.943 408.565C402.773 409.765 402.523 413.845 402.233 419.785C390.185 421.737 377.942 422.188 365.783 421.125L362.083 403.285C374.54 405.56 387.292 405.722 399.803 403.765C402.623 405.045 403.743 402.965 402.943 408.565Z" fill="#3F3D56"/>
<path id="Vector_61" d="M338.513 427.175C328.26 429.457 317.839 430.908 307.353 431.515L302.123 423.765L301.003 415.075C312.79 415.379 324.556 413.923 335.913 410.755C334.953 415.095 334.273 418.035 334.273 418.035L338.513 427.175Z" fill="#3F3D56"/>
<path id="Vector_62" d="M341.373 184.095C341.373 186.747 340.319 189.291 338.444 191.166C336.568 193.042 334.025 194.095 331.373 194.095C328.721 194.095 326.177 193.042 324.302 191.166C322.426 189.291 321.373 186.747 321.373 184.095C321.373 178.572 330.373 167.095 331.373 174.095C332.373 181.095 341.373 178.572 341.373 184.095Z" fill="#6C63FF"/>
<path id="Vector_63" d="M332.46 167.14C332.1 167.11 331.74 167.1 331.37 167.1C327.017 167.105 322.831 168.778 319.673 171.774C316.515 174.771 314.624 178.863 314.39 183.21C314.38 183.5 314.37 183.8 314.37 184.1C314.37 184.51 314.38 184.91 314.42 185.31C314.671 188.87 316.038 192.26 318.325 194.999C320.612 197.739 323.703 199.688 327.161 200.572C330.618 201.455 334.266 201.227 337.587 199.92C340.907 198.613 343.732 196.293 345.66 193.29C346.047 192.697 346.395 192.079 346.7 191.44C347.902 188.933 348.471 186.168 348.355 183.39C348.24 180.612 347.445 177.904 346.039 175.505C344.633 173.106 342.659 171.089 340.292 169.63C337.924 168.172 335.235 167.317 332.46 167.14V167.14ZM344.2 193C342.632 194.886 340.672 196.409 338.456 197.462C336.241 198.515 333.823 199.074 331.37 199.1C327.717 199.095 324.192 197.759 321.453 195.342C318.714 192.925 316.95 189.593 316.49 185.97C316.41 185.35 316.369 184.725 316.37 184.1C316.368 184.013 316.372 183.926 316.38 183.84C316.449 179.909 318.058 176.162 320.861 173.405C323.665 170.648 327.438 169.103 331.37 169.1C331.46 169.34 331.55 169.57 331.65 169.79C335.92 179.89 345.18 179.13 346.37 184.1C346.946 186.503 346.596 189.034 345.39 191.19C345.051 191.829 344.653 192.435 344.2 193V193Z" fill="#6C63FF"/>
</g>
<g id="left-hand">
<path id="Vector_64" d="M288.753 340.844C290.376 339.176 291.283 336.94 291.282 334.613C291.281 332.286 290.371 330.051 288.748 328.384C288.412 328.05 288.05 327.745 287.664 327.471L301.019 268L280.342 268.341L275.268 330.176C274.256 331.864 273.832 333.838 274.06 335.793C274.289 337.747 275.158 339.571 276.532 340.979C277.322 341.773 278.26 342.403 279.293 342.835C280.326 343.266 281.435 343.489 282.554 343.492C283.674 343.495 284.783 343.278 285.819 342.852C286.854 342.427 287.796 341.801 288.59 341.012C288.645 340.957 288.7 340.901 288.753 340.844Z" fill="#6C63FF"/>
<path id="Vector_65" d="M332.57 140C332.57 140 328.01 155.14 322.7 172.61C321.03 178.11 319.28 183.84 317.58 189.41C312.03 207.52 306.97 223.84 306.5 224.49C305.44 225.98 305.57 230 306.5 234.69C306.69 235.63 306.26 239.29 305.45 244.54C304.39 251.43 302.68 261.05 300.86 270.87C299.41 278.72 297.89 286.69 296.58 293.48C294.53 304.02 293 311.71 293 311.71H274C274 311.71 277.57 232 281.57 226.25C285.57 220.49 281.57 225 278.57 221C275.57 217 280.57 219 285.61 213.86C290.65 208.73 286.57 211 282.57 207C281.09 205.52 284.4 196.09 289.16 184.8C291.38 179.56 293.91 173.91 296.41 168.47C301.58 157.24 306.65 146.91 308.66 142.83C308.66 142.82 308.67 142.81 308.67 142.8L309.57 141L332.57 140Z" fill="#F2F2F2"/>
</g>
<g id="right-hand">
<path id="Vector_66" d="M369.092 322.168C368.759 319.865 369.337 317.522 370.704 315.639C372.072 313.756 374.12 312.481 376.413 312.085C376.88 312.011 377.353 311.977 377.826 311.982L401.933 256L418.47 268.416L386.272 321.45C386.1 323.41 385.284 325.258 383.952 326.706C382.619 328.153 380.845 329.119 378.906 329.453C377.801 329.632 376.671 329.591 375.581 329.334C374.492 329.076 373.464 328.606 372.555 327.952C371.647 327.297 370.877 326.469 370.289 325.517C369.7 324.564 369.305 323.505 369.126 322.4C369.114 322.323 369.103 322.245 369.092 322.168Z" fill="#6C63FF"/>
<path id="Vector_67" d="M431 225C428 229 424 224.49 428 230.25C430.75 234.21 414.99 271.33 404.9 294.07C400.34 304.36 396.93 311.71 396.93 311.71L379.92 301.86L377.93 300.71C377.93 300.71 393.53 261.45 398.55 247.34C399.38 245 399.93 243.35 400.06 242.69C401 238 401.12 233.98 400.06 232.49C399.809 231.935 399.596 231.363 399.42 230.78C397.41 224.89 391.29 205 385.56 186.19C383.89 180.67 382.24 175.25 380.74 170.3C376.89 157.59 374 148 374 148L397 149C397 149 397.38 149.64 398.05 150.8C399.65 153.56 402.93 159.25 406.73 166.09C409.47 171.01 412.49 176.54 415.34 181.98C422.6 195.82 428.85 209.15 427 211C423 215 418.91 212.73 423.95 217.86C429 223 434 221 431 225Z" fill="#F2F2F2"/>
</g>
</g>
</svg>
